<svg xmlns="http://www.w3.org/2000/svg" xmlns:xlink="http://www.w3.org/1999/xlink" width="694.871" height="682.584" viewBox="0 0 694.871 682.584">
  <defs>
    <clipPath id="clip-path">
      <rect id="Rectangle_93" data-name="Rectangle 93" width="166.265" height="216.629" transform="translate(9943.639 8782.219) rotate(-22.082)" fill="none"/>
    </clipPath>
  </defs>
  <path id="Path_17" data-name="Path 17" d="M9929.19,9003.419c20.961-29.971,61.9-35.729,97.612-43.636a423.355,423.355,0,0,0,199.174-106.068c36.92-35.144,68.349-77.679,113.219-101.863a171.7,171.7,0,0,1,91.433-20.1c49.613,3.053,102.555,37.121,104.712,86.781,1.3,29.891-15.643,57.257-22.289,86.429a129.137,129.137,0,0,0,17.377,97.779c16.974,26.146,43.653,46.391,53.948,75.813,9.887,28.257,2.044,61.014-16.63,84.411s-46.973,37.92-76.349,43.687a164.3,164.3,0,0,1-88.7-7.3c-20.756-7.769-39.854-19.73-61.048-26.213-42.021-12.854-87.776-2.834-128.553,13.547s-79,39.006-120.751,52.729c-46.044,15.133-55.458-8.409-50.109-46.36,4.021-28.544-1.887-29.687-30-39.967C9957.635,9133.113,9883.94,9068.119,9929.19,9003.419Z" transform="translate(-9915.125 -8709.229)" fill="#f3967a" opacity="0.43"/>
  <g id="Group_496" data-name="Group 496" transform="translate(-9915.125 -8709.229)">
    <g id="Group_495" data-name="Group 495">
      <path id="Path_365" data-name="Path 365" d="M10596.1,9052.842c-4.55,19.146-10.115,32.7-16.329,35.7-6.983-3.4-14.127-6.455-21.156-9.108-39.614-15.052-78.7-18.438-102.239-18.9-4.41-.073-8.275-.043-11.485.015-6.895.122-10.83.519-10.83.519-6.271-1.184-6.475-16.578-3.133-38.795.121-.642.167-1.392.306-2.123,4.592-29.851,15.463-71.029,26.812-105.769.389-1.063.688-2.145,1.076-3.21,6.278-18.819,12.721-35.521,18.521-47.321,5.586-11.649,10.546-18.488,13.91-17.854,0,0,61.622,29.628,112.713,21.249,1.4,2.064,2.5,5.687,3.335,10.771.247,1.185.4,2.353.617,3.72a248.9,248.9,0,0,1,1.779,32c.013,8.914-.111,18.561-.611,28.705a746.942,746.942,0,0,1-7.658,80.559C10600.071,9033.778,10598.155,9043.938,10596.1,9052.842Z" fill="#46495b"/>
      <path id="Path_366" data-name="Path 366" d="M10598.2,9042.715c-.347,1.831-.656,3.479-1.075,5.2-.312,1.648-.621,3.3-1.024,4.926-.8,3.262-1.588,6.432-2.413,9.31-4.091,14.208-8.75,23.947-13.916,26.386-4.14-2.013-8.222-3.826-12.411-5.563-2.953-1.315-5.85-2.43-8.745-3.545-39.614-15.052-78.7-18.438-102.239-18.9-3.574-.01-6.859-.062-9.6-.008-.653-.028-1.324.033-1.887.022-.045-.766-.162-1.642-.188-2.5a80.7,80.7,0,0,1,.3-10.087,159.644,159.644,0,0,1,1.839-16.243c.121-.642.168-1.391.307-2.123,4.592-29.85,15.462-71.029,26.811-105.767.39-1.065.688-2.147,1.077-3.211,1.515-4.549,3-8.915,4.554-13.172q1.749-4.79,3.448-9.3c3.591-9.562,7.174-18.082,10.52-24.847,5.585-11.648,10.545-18.488,13.908-17.854,0,0,52.033,25.072,100.134,22.574.247,1.185.4,2.353.617,3.72a248.9,248.9,0,0,1,1.779,32c.013,8.914-.111,18.561-.611,28.705a746.942,746.942,0,0,1-7.658,80.559C10600.7,9029.915,10599.462,9036.506,10598.2,9042.715Z" fill="#46495b"/>
      <path id="Path_367" data-name="Path 367" d="M10483.037,8898.142q-1.7,4.515-3.448,9.3c-1.556,4.257-3.039,8.623-4.554,13.172-.389,1.063-.687,2.146-1.077,3.211-.246.806-.474,1.521-.72,2.328a68.135,68.135,0,0,0-20.72,75.441c-2.262,10-4.04,19.432-5.371,28-.139.732-.186,1.481-.307,2.123a159.644,159.644,0,0,0-1.839,16.243,99.644,99.644,0,0,1-14.076-25.689c.121-.642.167-1.392.306-2.123,4.592-29.851,15.463-71.029,26.812-105.769A96.561,96.561,0,0,1,10483.037,8898.142Z" fill="#ececed"/>
      <path id="Path_368" data-name="Path 368" d="M10598.2,9042.715c-.347,1.831-.656,3.479-1.075,5.2-.312,1.648-.621,3.3-1.024,4.926a98.851,98.851,0,0,1-37.485,26.587c-39.614-15.052-78.7-18.438-102.239-18.9a95.59,95.59,0,0,1-11.372-12.572,159.644,159.644,0,0,1,1.839-16.243c.121-.642.168-1.391.307-2.123,4.592-29.85,15.462-71.029,26.811-105.767.39-1.065.688-2.147,1.077-3.211,1.515-4.549,3-8.915,4.554-13.172q1.749-4.79,3.448-9.3a97.07,97.07,0,0,1,126.347,44.3,746.942,746.942,0,0,1-7.658,80.559C10600.7,9029.915,10599.462,9036.506,10598.2,9042.715Z" fill="#ececed"/>
      <path id="Path_369" data-name="Path 369" d="M10479.589,8907.445c-1.556,4.257-3.039,8.623-4.554,13.172-.389,1.063-.687,2.146-1.077,3.211-11.349,34.737-22.219,75.917-26.811,105.767-.139.732-.186,1.481-.307,2.123-1.622,10.6-2.387,19.647-2.141,26.33a98.252,98.252,0,0,1-15.362-27.354c.121-.642.167-1.392.3-2.123,4.594-29.85,14.363-71.237,25.713-105.976C10462.354,8916.426,10471.225,8911.367,10479.589,8907.445Z" fill="#ef4e37"/>
      <path id="Path_370" data-name="Path 370" d="M10594.512,9061.265a6.247,6.247,0,0,1-.826.887,97.626,97.626,0,0,1-26.327,20.822c-2.953-1.315-5.85-2.43-8.745-3.545-39.614-15.052-78.7-18.438-102.239-18.9-3.574-.01-6.859-.062-9.6-.008-.7-.8-1.395-1.591-2.075-2.478-.246-6.683.519-15.733,2.141-26.33.121-.642.168-1.391.307-2.123,4.592-29.85,15.462-71.029,26.811-105.767.39-1.065.688-2.147,1.077-3.211,1.515-4.549,3-8.915,4.554-13.172a96.271,96.271,0,0,1,59.735-7.793,99.819,99.819,0,0,1,69.469,51.967c-1.071,26.152-4.726,54.471-8.655,79.8-.633,3.862-1.25,7.633-1.939,11.295C10597.045,9049.323,10595.872,9055.548,10594.512,9061.265Z" fill="#ef4e37"/>
      <path id="Path_371" data-name="Path 371" d="M10452.783,8978.232a26.333,26.333,0,0,1,5.876-2.209c-2.219,8.776-4.3,17.3-6.141,25.574a66.652,66.652,0,0,1-2.812-35.511,67.369,67.369,0,0,1,10.066-24.931Z" fill="#ececed"/>
      <path id="Path_372" data-name="Path 372" d="M10473.238,8926.156c-1.288,3.834-2.5,7.775-3.716,11.719a38.463,38.463,0,0,0-9.624,3.115A66.551,66.551,0,0,1,10473.238,8926.156Z" fill="#ececed"/>
      <path id="Path_373" data-name="Path 373" d="M10582.873,8991.193c-6.973,36.984-42.448,61.391-79.171,54.467a67.425,67.425,0,0,1-51.184-44.062c5.3-24.123,12.859-51.232,20.72-75.441a67,67,0,0,1,55.748-14.612C10565.71,8918.468,10589.863,8954.116,10582.873,8991.193Z" fill="#ececed"/>
      <path id="Path_374" data-name="Path 374" d="M10572.639,8989.242a57.518,57.518,0,0,1-67.017,46.1c-31.106-5.863-51.534-36.014-45.628-67.342a57.316,57.316,0,1,1,112.645,21.237Z" fill="#f3967a"/>
      <path id="Path_375" data-name="Path 375" d="M10469.522,8937.875c-3.854,12.45-7.521,25.411-10.863,38.148a26.333,26.333,0,0,0-5.876,2.209l7.007-37.167.108-.075A38.463,38.463,0,0,1,10469.522,8937.875Z" fill="#ef4e37"/>
      <path id="Path_376" data-name="Path 376" d="M10582.593,8964.217l-7.007,37.167a98.845,98.845,0,0,1-30.716.656c-11.119-1.433-23.422-5.08-33.991-13.424-10.071-7.491-19.508-11.356-27.563-13.065a49.244,49.244,0,0,0-24.656.473c3.342-12.737,7.01-25.7,10.863-38.148a51.592,51.592,0,0,1,20.8.508c8.055,1.708,17.492,5.573,27.563,13.066,10.57,8.344,22.872,11.99,33.992,13.423A98.892,98.892,0,0,0,10582.593,8964.217Z" fill="#ef4e37"/>
    </g>
  </g>
  <g id="Group_921" data-name="Group 921" transform="translate(-9915.125 -8709.229)">
    <g id="Group_498" data-name="Group 498">
      <g id="Group_497" data-name="Group 497">
        <path id="Path_377" data-name="Path 377" d="M10477.449,9367.374a.717.717,0,0,1-.072-1.43,40.439,40.439,0,0,0,8.261-1.738.717.717,0,1,1,.44,1.364,41.737,41.737,0,0,1-8.555,1.8A.631.631,0,0,1,10477.449,9367.374Zm-8.587-.01c-.026,0-.052,0-.076,0a41.709,41.709,0,0,1-8.551-1.817.717.717,0,0,1,.442-1.364,40.3,40.3,0,0,0,8.256,1.755.717.717,0,0,1-.071,1.431Zm24.851-5.249a.717.717,0,0,1-.359-1.337,40.775,40.775,0,0,0,6.837-4.96.716.716,0,1,1,.957,1.066,41.95,41.95,0,0,1-7.076,5.133A.705.705,0,0,1,10493.713,9362.115Zm-41.1-.04a.712.712,0,0,1-.36-.1,42.023,42.023,0,0,1-7.064-5.147.717.717,0,0,1,.961-1.064,40.627,40.627,0,0,0,6.823,4.972.717.717,0,0,1-.359,1.338Zm53.816-11.381a.718.718,0,0,1-.579-1.141,40.636,40.636,0,0,0,4.239-7.3.717.717,0,0,1,1.309.585,42.043,42.043,0,0,1-4.389,7.56A.718.718,0,0,1,10506.428,9350.694Zm-66.508-.066a.712.712,0,0,1-.58-.3,41.833,41.833,0,0,1-4.376-7.57.717.717,0,0,1,1.311-.583,40.333,40.333,0,0,0,4.225,7.311.717.717,0,0,1-.579,1.139Zm73.492-15.531a.8.8,0,0,1-.151-.015.717.717,0,0,1-.552-.851,40.726,40.726,0,0,0,.891-8.395.719.719,0,0,1,.718-.716h0a.717.717,0,0,1,.716.718,42.1,42.1,0,0,1-.922,8.691A.718.718,0,0,1,10513.412,9335.1Zm-80.448-.082a.716.716,0,0,1-.7-.568,42.231,42.231,0,0,1-.9-8.693v-.168a.717.717,0,0,1,1.434,0v.149a40.878,40.878,0,0,0,.873,8.415.718.718,0,0,1-.553.85A.8.8,0,0,1,10432.964,9335.015Zm80.48-17.008a.715.715,0,0,1-.7-.57,40.247,40.247,0,0,0-2.588-8.034.717.717,0,1,1,1.311-.58,41.478,41.478,0,0,1,2.681,8.32.717.717,0,0,1-.555.85A.708.708,0,0,1,10513.444,9318.007Zm-80.439-.248a.831.831,0,0,1-.153-.015.72.72,0,0,1-.551-.854,41.567,41.567,0,0,1,2.733-8.3.717.717,0,1,1,1.308.588,40.041,40.041,0,0,0-2.637,8.019A.717.717,0,0,1,10433,9317.759Zm73.521-15.379a.711.711,0,0,1-.581-.3,40.745,40.745,0,0,0-5.637-6.289.717.717,0,1,1,.964-1.061,42.28,42.28,0,0,1,5.836,6.51.717.717,0,0,1-.582,1.137Zm-66.513-.2a.716.716,0,0,1-.579-1.141,42.13,42.13,0,0,1,5.876-6.474.717.717,0,1,1,.955,1.069,40.783,40.783,0,0,0-5.674,6.253A.712.712,0,0,1,10440.014,9302.178Zm53.843-11.27a.728.728,0,0,1-.362-.1,40.289,40.289,0,0,0-7.7-3.461.716.716,0,1,1,.448-1.36,41.709,41.709,0,0,1,7.977,3.581.717.717,0,0,1-.36,1.337Zm-41.1-.124a.717.717,0,0,1-.356-1.339,41.677,41.677,0,0,1,8-3.535.718.718,0,0,1,.437,1.367,40.169,40.169,0,0,0-7.722,3.411A.716.716,0,0,1,10452.754,9290.784Zm24.866-5.2a.658.658,0,0,1-.077,0,41.307,41.307,0,0,0-8.445-.026.726.726,0,0,1-.783-.642.713.713,0,0,1,.641-.784,42.437,42.437,0,0,1,8.739.027.716.716,0,0,1-.074,1.429Z" fill="#ffb4ab"/>
      </g>
    </g>
    <g id="Group_500" data-name="Group 500">
      <g id="Group_499" data-name="Group 499">
        <path id="Path_378" data-name="Path 378" d="M9990.808,9192.8a.717.717,0,0,1-.072-1.43,40.343,40.343,0,0,0,8.261-1.738.717.717,0,1,1,.44,1.364,41.71,41.71,0,0,1-8.555,1.8Zm-8.59-.01a.681.681,0,0,1-.075,0,41.652,41.652,0,0,1-8.551-1.816.717.717,0,1,1,.444-1.363,40.375,40.375,0,0,0,8.257,1.755.716.716,0,0,1-.075,1.429Zm24.854-5.248a.717.717,0,0,1-.359-1.338,40.573,40.573,0,0,0,6.834-4.958.717.717,0,1,1,.958,1.067,42.072,42.072,0,0,1-7.075,5.133A.706.706,0,0,1,10007.071,9187.544Zm-41.1-.042a.71.71,0,0,1-.358-.1,42.062,42.062,0,0,1-7.064-5.147.717.717,0,0,1,.96-1.064,40.663,40.663,0,0,0,6.822,4.971.716.716,0,0,1-.359,1.337Zm53.818-11.379a.717.717,0,0,1-.579-1.14,40.4,40.4,0,0,0,4.239-7.3.717.717,0,1,1,1.308.588,41.882,41.882,0,0,1-4.388,7.558A.724.724,0,0,1,10019.786,9176.123Zm-66.509-.066a.713.713,0,0,1-.581-.295,41.878,41.878,0,0,1-4.375-7.569.717.717,0,0,1,1.31-.584,40.445,40.445,0,0,0,4.226,7.31.717.717,0,0,1-.579,1.139Zm73.492-15.529a.657.657,0,0,1-.15-.017.716.716,0,0,1-.551-.851,40.765,40.765,0,0,0,.891-8.395.716.716,0,0,1,.717-.716h0a.718.718,0,0,1,.716.719,42.137,42.137,0,0,1-.923,8.691A.716.716,0,0,1,10026.77,9160.527Zm-80.446-.083a.717.717,0,0,1-.7-.569,42.17,42.17,0,0,1-.905-8.693v-.17a.717.717,0,0,1,1.435,0v.17a40.68,40.68,0,0,0,.874,8.4.718.718,0,0,1-.7.865Zm80.479-17.006a.718.718,0,0,1-.7-.57,40.1,40.1,0,0,0-2.588-8.036.717.717,0,1,1,1.312-.581,41.626,41.626,0,0,1,2.68,8.323.715.715,0,0,1-.554.848A.706.706,0,0,1,10026.8,9143.438Zm-80.441-.252a.747.747,0,0,1-.152-.016.716.716,0,0,1-.549-.852,41.65,41.65,0,0,1,2.73-8.3.717.717,0,0,1,1.309.589,40.2,40.2,0,0,0-2.638,8.018A.716.716,0,0,1,9946.361,9143.187Zm73.523-15.378a.717.717,0,0,1-.581-.3,40.684,40.684,0,0,0-5.637-6.288.717.717,0,1,1,.963-1.062,42.162,42.162,0,0,1,5.835,6.509.716.716,0,0,1-.58,1.137Zm-66.511-.2a.718.718,0,0,1-.578-1.142,42.244,42.244,0,0,1,5.874-6.474.717.717,0,1,1,.957,1.068,40.726,40.726,0,0,0-5.674,6.254A.722.722,0,0,1,9953.374,9127.607Zm53.84-11.271a.711.711,0,0,1-.358-.1,40.387,40.387,0,0,0-7.7-3.459.717.717,0,0,1,.446-1.363,41.8,41.8,0,0,1,7.976,3.583.717.717,0,0,1-.362,1.336Zm-41.1-.126a.716.716,0,0,1-.358-1.338,41.732,41.732,0,0,1,8-3.534.717.717,0,1,1,.438,1.366,40.286,40.286,0,0,0-7.723,3.411A.721.721,0,0,1,9966.115,9116.211Zm24.862-5.2c-.024,0-.051,0-.076,0a41.135,41.135,0,0,0-8.442-.025.717.717,0,0,1-.144-1.428,42.63,42.63,0,0,1,8.738.027.717.717,0,0,1-.076,1.43Z" fill="#f3967a"/>
      </g>
    </g>
    <g id="Group_744" data-name="Group 744">
      <g id="Group_515" data-name="Group 515">
        <g id="Group_502" data-name="Group 502">
          <g id="Group_501" data-name="Group 501">
            <path id="Path_379" data-name="Path 379" d="M10320.413,9379.759h-152.932a98.982,98.982,0,0,0,11.613-31.4,75.351,75.351,0,0,0,1.071-8.456h127.563q.338,4.291,1.016,8.456A83.007,83.007,0,0,0,10320.413,9379.759Z" fill="#46495b"/>
          </g>
        </g>
        <g id="Group_504" data-name="Group 504">
          <g id="Group_503" data-name="Group 503">
            <path id="Path_380" data-name="Path 380" d="M10308.744,9348.357h-129.649a75.351,75.351,0,0,0,1.071-8.456h127.563Q10308.067,9344.192,10308.744,9348.357Z" fill="#242638"/>
          </g>
        </g>
        <g id="Group_506" data-name="Group 506">
          <g id="Group_505" data-name="Group 505">
            <path id="Path_381" data-name="Path 381" d="M10334.946,9391.813h-182a13.237,13.237,0,0,1,13.236-13.237h155.527a13.237,13.237,0,0,1,13.236,13.237Z" fill="#46495b"/>
          </g>
        </g>
        <g id="Group_508" data-name="Group 508">
          <g id="Group_507" data-name="Group 507">
            <path id="Rectangle_41" data-name="Rectangle 41" d="M61.588,0H424.931a61.589,61.589,0,0,1,61.589,61.589V262.494a61.589,61.589,0,0,1-61.589,61.589H61.589A61.589,61.589,0,0,1,0,262.494V61.588A61.588,61.588,0,0,1,61.588,0Z" transform="translate(10000.687 9017.056)" fill="#46495b"/>
          </g>
        </g>
        <g id="Group_510" data-name="Group 510">
          <g id="Group_509" data-name="Group 509">
            <path id="Rectangle_42" data-name="Rectangle 42" d="M18.556,0H467.963a18.556,18.556,0,0,1,18.556,18.556V295.885a0,0,0,0,1,0,0H0a0,0,0,0,1,0,0V18.556A18.556,18.556,0,0,1,18.556,0Z" transform="translate(10000.687 9017.056)" fill="#242638"/>
          </g>
        </g>
        <g id="Group_512" data-name="Group 512">
          <g id="Group_511" data-name="Group 511">
            <rect id="Rectangle_43" data-name="Rectangle 43" width="281.539" height="472.551" transform="translate(10480.222 9024.229) rotate(90)" fill="#f9f6f2"/>
          </g>
        </g>
        <g id="Group_514" data-name="Group 514">
          <g id="Group_513" data-name="Group 513">
            <path id="Path_382" data-name="Path 382" d="M10284.262,9379.294h-112.75a.717.717,0,0,1,0-1.434h112.75a.717.717,0,0,1,0,1.434Z" fill="#fff"/>
          </g>
        </g>
      </g>
      <g id="Group_522" data-name="Group 522">
        <g id="Group_517" data-name="Group 517">
          <g id="Group_516" data-name="Group 516">
            <path id="Path_383" data-name="Path 383" d="M10030.143,9034.681a4.032,4.032,0,1,1-4.031-4.031A4.031,4.031,0,0,1,10030.143,9034.681Z" fill="#ef4e37"/>
          </g>
        </g>
        <g id="Group_519" data-name="Group 519">
          <g id="Group_518" data-name="Group 518">
            <path id="Path_384" data-name="Path 384" d="M10044.294,9034.681a4.033,4.033,0,1,1-4.033-4.031A4.032,4.032,0,0,1,10044.294,9034.681Z" fill="#ff7867"/>
          </g>
        </g>
        <g id="Group_521" data-name="Group 521">
          <g id="Group_520" data-name="Group 520">
            <path id="Path_385" data-name="Path 385" d="M10058.444,9034.681a4.033,4.033,0,1,1-4.033-4.031A4.033,4.033,0,0,1,10058.444,9034.681Z" fill="#46495b"/>
          </g>
        </g>
      </g>
      <g id="Group_591" data-name="Group 591">
        <g id="Group_544" data-name="Group 544">
          <g id="Group_524" data-name="Group 524">
            <g id="Group_523" data-name="Group 523">
              <path id="Path_386" data-name="Path 386" d="M10104.66,9205.947a32.68,32.68,0,1,1,32.681-32.669,32.667,32.667,0,0,1-7.378,20.666,29.161,29.161,0,0,1-2.189,2.434A32.525,32.525,0,0,1,10104.66,9205.947Zm0-63.916a31.241,31.241,0,1,0,22.1,53.333,27.093,27.093,0,0,0,2.087-2.322,31.233,31.233,0,0,0-24.187-51.011Z" fill="#ff7867"/>
            </g>
          </g>
          <g id="Group_543" data-name="Group 543">
            <g id="Group_526" data-name="Group 526">
              <g id="Group_525" data-name="Group 525">
                <path id="Path_387" data-name="Path 387" d="M10129.408,9193.489a28.127,28.127,0,0,1-2.143,2.382,31.947,31.947,0,0,1-45.636-.465l12.91-1.522h.141l3.2-.1,14.235-.479,3.565-.112.338-.015Z" fill="#ff7867"/>
              </g>
            </g>
            <g id="Group_528" data-name="Group 528">
              <g id="Group_527" data-name="Group 527">
                <path id="Path_388" data-name="Path 388" d="M10097.437,9182.031l.449,11.749,14.226-.466-.388-7.2a9.541,9.541,0,0,0,6.045-8.564l.164-5.355.8-9.117-9.185-.612c-.2-.014-9.306.922-9.306.922l-3.237,7.412.161,4.178Z" fill="#f9f6f2"/>
              </g>
            </g>
            <g id="Group_530" data-name="Group 530">
              <g id="Group_529" data-name="Group 529">
                <path id="Path_389" data-name="Path 389" d="M10094.675,9193.888a10.946,10.946,0,0,0,21.012-.7Z" fill="#f9f6f2"/>
              </g>
            </g>
            <g id="Group_532" data-name="Group 532">
              <g id="Group_531" data-name="Group 531">
                <path id="Path_390" data-name="Path 390" d="M10093.659,9178.276a3.535,3.535,0,0,0,3.295,3.765,2.491,2.491,0,0,0,.482-.01l-.269-7.058A3.531,3.531,0,0,0,10093.659,9178.276Z" fill="#f9f6f2"/>
              </g>
            </g>
            <g id="Group_534" data-name="Group 534">
              <g id="Group_533" data-name="Group 533">
                <path id="Path_391" data-name="Path 391" d="M10093.7,9179.109s-8.452.282-8.483-9.294,8.11-8.164,8.11-8.164-2.193-7.289,3.142-11.181a9.451,9.451,0,0,1,8.2-1.443c2.644.783,5.691,2.921,6.406,8.518,0,0,6.2-5.952,11.435,2.09,3.852,5.919-4.432,13.241-4.432,13.241a21.437,21.437,0,0,1-1.363-7.523s-1.747,7.114-9.448,6.133a4.413,4.413,0,0,1-2.444-2.507c-.742-1.924-4.048-2.546-5.168,1.2,0,0-1.608,4.044.471,5.99l-2.136-.767a3.084,3.084,0,0,0-1.38-.156,3.209,3.209,0,0,0-1.271.4,3.934,3.934,0,0,0-.707.578,3.2,3.2,0,0,0-.639.813,2.476,2.476,0,0,0-.236.945c-.021.34-.027.68-.051,1.02l-.007.108Z" fill="#ef4e37"/>
              </g>
            </g>
            <g id="Group_536" data-name="Group 536">
              <g id="Group_535" data-name="Group 535">
                <path id="Path_392" data-name="Path 392" d="M10111.724,9186.111s-3.922,1.167-8.774-2.37c0,0,1.17,5.862,9.021,6.953Z" fill="#ff9c91"/>
              </g>
            </g>
            <g id="Group_538" data-name="Group 538">
              <g id="Group_537" data-name="Group 537">
                <path id="Path_393" data-name="Path 393" d="M10096.754,9180.572h-.03a2.082,2.082,0,0,1-1.231-3.645,2.129,2.129,0,0,1,1.51-.51.431.431,0,0,1-.059.859,1.22,1.22,0,1,0-.161,2.435.431.431,0,0,1-.028.86Z" fill="#ff9c91"/>
              </g>
            </g>
            <g id="Group_540" data-name="Group 540">
              <g id="Group_539" data-name="Group 539">
                <path id="Path_394" data-name="Path 394" d="M10110.618,9158.562a6.482,6.482,0,0,1,1.8-3.223,9.136,9.136,0,0,1,3.143-2.069,11.205,11.205,0,0,1,7.272-.255,33.758,33.758,0,0,0-6.746,1.588A13.056,13.056,0,0,0,10110.618,9158.562Z" fill="#ef4e37"/>
              </g>
            </g>
            <g id="Group_542" data-name="Group 542">
              <g id="Group_541" data-name="Group 541">
                <path id="Path_395" data-name="Path 395" d="M10111.207,9158.71a21.879,21.879,0,0,1-.553-4.317,38.811,38.811,0,0,0-.5-4.211,5.636,5.636,0,0,1,1.925,4.111A8.712,8.712,0,0,1,10111.207,9158.71Z" fill="#ef4e37"/>
              </g>
            </g>
          </g>
        </g>
        <g id="Group_546" data-name="Group 546">
          <g id="Group_545" data-name="Group 545">
            <path id="Path_396" data-name="Path 396" d="M10394.985,9205.945h-232.962a9.185,9.185,0,0,1-9.174-9.174v-19.663l-6.172-5.247a3.535,3.535,0,0,1,0-5.39l6.172-5.247v-11.453a9.183,9.183,0,0,1,9.174-9.173h232.962a9.183,9.183,0,0,1,9.174,9.173v47A9.185,9.185,0,0,1,10394.985,9205.945Zm-232.962-63.912a7.746,7.746,0,0,0-7.739,7.738v12.117l-6.678,5.677a2.1,2.1,0,0,0,0,3.2l6.678,5.677v20.326a7.747,7.747,0,0,0,7.739,7.739h232.962a7.747,7.747,0,0,0,7.739-7.739v-47a7.746,7.746,0,0,0-7.739-7.738Z" fill="#ff7867"/>
          </g>
        </g>
        <g id="Group_557" data-name="Group 557">
          <g id="Group_548" data-name="Group 548">
            <g id="Group_547" data-name="Group 547">
              <path id="Path_397" data-name="Path 397" d="M10224.642,9116.776l1.767,3.579a1.276,1.276,0,0,0,.964.7l3.95.574a1.281,1.281,0,0,1,.71,2.185l-2.858,2.785a1.285,1.285,0,0,0-.369,1.134l.676,3.934a1.281,1.281,0,0,1-1.858,1.35l-3.533-1.856a1.277,1.277,0,0,0-1.19,0l-3.533,1.856a1.281,1.281,0,0,1-1.858-1.35l.675-3.934a1.281,1.281,0,0,0-.367-1.134l-2.858-2.785a1.281,1.281,0,0,1,.709-2.185l3.95-.574a1.276,1.276,0,0,0,.964-.7l1.767-3.579A1.28,1.28,0,0,1,10224.642,9116.776Z" fill="#ef4e37"/>
            </g>
          </g>
          <g id="Group_550" data-name="Group 550">
            <g id="Group_549" data-name="Group 549">
              <path id="Path_398" data-name="Path 398" d="M10245.243,9116.776l1.767,3.579a1.276,1.276,0,0,0,.964.7l3.95.574a1.281,1.281,0,0,1,.709,2.185l-2.857,2.785a1.279,1.279,0,0,0-.368,1.134l.675,3.934a1.281,1.281,0,0,1-1.858,1.35l-3.532-1.856a1.281,1.281,0,0,0-1.192,0l-3.532,1.856a1.28,1.28,0,0,1-1.857-1.35l.675-3.934a1.282,1.282,0,0,0-.369-1.134l-2.858-2.785a1.281,1.281,0,0,1,.71-2.185l3.95-.574a1.276,1.276,0,0,0,.964-.7l1.767-3.579A1.28,1.28,0,0,1,10245.243,9116.776Z" fill="#ef4e37"/>
            </g>
          </g>
          <g id="Group_552" data-name="Group 552">
            <g id="Group_551" data-name="Group 551">
              <path id="Path_399" data-name="Path 399" d="M10265.845,9116.776l1.767,3.579a1.276,1.276,0,0,0,.964.7l3.95.574a1.281,1.281,0,0,1,.71,2.185l-2.858,2.785a1.279,1.279,0,0,0-.368,1.134l.674,3.934a1.279,1.279,0,0,1-1.856,1.35l-3.533-1.856a1.281,1.281,0,0,0-1.192,0l-3.532,1.856a1.281,1.281,0,0,1-1.858-1.35l.675-3.934a1.279,1.279,0,0,0-.368-1.134l-2.857-2.785a1.281,1.281,0,0,1,.709-2.185l3.95-.574a1.276,1.276,0,0,0,.964-.7l1.767-3.579A1.28,1.28,0,0,1,10265.845,9116.776Z" fill="#ef4e37"/>
            </g>
          </g>
          <g id="Group_554" data-name="Group 554">
            <g id="Group_553" data-name="Group 553">
              <path id="Path_400" data-name="Path 400" d="M10286.447,9116.776l1.766,3.579a1.278,1.278,0,0,0,.964.7l3.95.574a1.281,1.281,0,0,1,.71,2.185l-2.859,2.785a1.283,1.283,0,0,0-.367,1.134l.675,3.934a1.281,1.281,0,0,1-1.858,1.35l-3.533-1.856a1.277,1.277,0,0,0-1.19,0l-3.533,1.856a1.281,1.281,0,0,1-1.858-1.35l.676-3.934a1.287,1.287,0,0,0-.368-1.134l-2.859-2.785a1.281,1.281,0,0,1,.71-2.185l3.95-.574a1.275,1.275,0,0,0,.964-.7l1.767-3.579A1.281,1.281,0,0,1,10286.447,9116.776Z" fill="#ef4e37"/>
            </g>
          </g>
          <g id="Group_556" data-name="Group 556">
            <g id="Group_555" data-name="Group 555">
              <path id="Path_401" data-name="Path 401" d="M10307.048,9116.776l1.768,3.579a1.275,1.275,0,0,0,.964.7l3.949.574a1.281,1.281,0,0,1,.71,2.185l-2.858,2.785a1.279,1.279,0,0,0-.368,1.134l.674,3.934a1.279,1.279,0,0,1-1.856,1.35l-3.533-1.856a1.281,1.281,0,0,0-1.192,0l-3.532,1.856a1.28,1.28,0,0,1-1.857-1.35l.675-3.934a1.279,1.279,0,0,0-.369-1.134l-2.857-2.785a1.281,1.281,0,0,1,.71-2.185l3.95-.574a1.278,1.278,0,0,0,.964-.7l1.766-3.579A1.28,1.28,0,0,1,10307.048,9116.776Z" fill="#ef4e37"/>
            </g>
          </g>
        </g>
        <g id="Group_562" data-name="Group 562">
          <g id="Group_558" data-name="Group 558">
            <path id="Path_402" data-name="Path 402" d="M10176.917,9119.37l-.135.59a2.344,2.344,0,0,0-.545.1,2.969,2.969,0,0,0-.6.245,2.512,2.512,0,0,0-.618.474,3.6,3.6,0,0,0-.5.733q-.92,1.711-2.5,4.68t-3.242,6.029h-.8l-1.039-9.8-5.556,9.8h-.787q-.205-4.071-.349-6.848t-.215-4.21a1.363,1.363,0,0,0-.107-.483,1.157,1.157,0,0,0-.349-.4,1.266,1.266,0,0,0-.479-.228,2.949,2.949,0,0,0-.522-.095l.134-.59h5.108l-.135.59a4.7,4.7,0,0,0-1.427.229c-.242.11-.361.243-.361.4,0,.119,0,.294.009.528s.015.471.025.716q.029.618.131,2.493t.257,4.72l5.334-9.494h.817l1.064,9.69q1.118-2.136,1.949-3.795t1.484-2.98q.394-.813.55-1.233a2.037,2.037,0,0,0,.156-.592c0-.189-.136-.344-.407-.46a3.712,3.712,0,0,0-1.177-.22l.135-.59Z" fill="#46495b"/>
          </g>
          <g id="Group_559" data-name="Group 559">
            <path id="Path_403" data-name="Path 403" d="M10184.064,9126.549a6.56,6.56,0,0,1-.357,2.113,5.565,5.565,0,0,1-1.038,1.854,5.276,5.276,0,0,1-1.659,1.321,4.883,4.883,0,0,1-2.25.5,3.2,3.2,0,0,1-2.412-.959,3.559,3.559,0,0,1-.925-2.579,6.2,6.2,0,0,1,1.449-4.03,5.115,5.115,0,0,1,1.659-1.258,4.863,4.863,0,0,1,2.143-.478,3.22,3.22,0,0,1,2.491.971A3.6,3.6,0,0,1,10184.064,9126.549Zm-1.824-.34a3.3,3.3,0,0,0-.452-1.909,1.5,1.5,0,0,0-1.3-.636,2.418,2.418,0,0,0-1.4.457,3.569,3.569,0,0,0-1.131,1.487,6.863,6.863,0,0,0-.537,1.732,10,10,0,0,0-.17,1.759,3.474,3.474,0,0,0,.443,1.94,1.5,1.5,0,0,0,1.337.658,2.184,2.184,0,0,0,1.414-.5,3.829,3.829,0,0,0,1-1.272,6.94,6.94,0,0,0,.59-1.724A9.631,9.631,0,0,0,10182.24,9126.209Z" fill="#46495b"/>
          </g>
          <g id="Group_560" data-name="Group 560">
            <path id="Path_404" data-name="Path 404" d="M10199.166,9124.686a9.836,9.836,0,0,1-.4,2.784,8.788,8.788,0,0,1-1.1,2.428,6.211,6.211,0,0,1-1.763,1.8,3.874,3.874,0,0,1-2.139.636,2.775,2.775,0,0,1-1.552-.467,2.247,2.247,0,0,1-.953-1.279q-.322.312-.595.581a4.665,4.665,0,0,1-.711.556,5.171,5.171,0,0,1-.8.438,2.41,2.41,0,0,1-.927.153,2.627,2.627,0,0,1-1.122-.21,1.981,1.981,0,0,1-.712-.553,2.013,2.013,0,0,1-.357-.729,3.363,3.363,0,0,1-.107-.856,3.111,3.111,0,0,1,.04-.429c.027-.173.057-.322.085-.447l.76-2.83a6.439,6.439,0,0,0,.157-.734,3.828,3.828,0,0,0,.049-.547.962.962,0,0,0-.165-.666.978.978,0,0,0-.676-.167,2.13,2.13,0,0,0-.5.075q-.3.076-.474.122l.133-.577a10.587,10.587,0,0,1,1.227-.478,3.092,3.092,0,0,1,.853-.162,1.43,1.43,0,0,1,1.049.336,1.292,1.292,0,0,1,.335.953,3.537,3.537,0,0,1-.036.439,4.488,4.488,0,0,1-.106.556l-.826,3.3c-.054.219-.1.446-.134.681a3.748,3.748,0,0,0-.055.52,1.628,1.628,0,0,0,.27,1.016,1.075,1.075,0,0,0,.9.346,2.646,2.646,0,0,0,1.182-.311,3.638,3.638,0,0,0,1.128-.9l1.583-6.8,1.558-.105.108.133-1.263,5.455c-.042.179-.085.4-.13.658a3.879,3.879,0,0,0-.067.489,1.626,1.626,0,0,0,.156.777,1.017,1.017,0,0,0,.4.422,1.265,1.265,0,0,0,.484.165,3.775,3.775,0,0,0,.482.032,2.419,2.419,0,0,0,1.247-.385,3.957,3.957,0,0,0,1.114-1,5.632,5.632,0,0,0,.833-1.527,5.256,5.256,0,0,0,.3-1.8,1.86,1.86,0,0,0-.147-.827,2.68,2.68,0,0,0-.326-.507,4.425,4.425,0,0,1-.327-.469,1.377,1.377,0,0,1-.146-.7.929.929,0,0,1,.339-.778,1.135,1.135,0,0,1,.716-.269.959.959,0,0,1,.828.424A2.133,2.133,0,0,1,10199.166,9124.686Z" fill="#46495b"/>
          </g>
          <g id="Group_561" data-name="Group 561">
            <path id="Path_405" data-name="Path 405" d="M10203.4,9131.036a1.147,1.147,0,0,1-.362.854,1.23,1.23,0,0,1-1.728,0,1.146,1.146,0,0,1-.361-.854,1.226,1.226,0,0,1,2.451,0Zm2.3-11.1a2.165,2.165,0,0,1-.055.427,5.706,5.706,0,0,1-.2.683q-.42,1.271-1.032,3.007t-1.4,4.151h-.7q.3-2.067.63-4.773t.425-3.18a1.493,1.493,0,0,1,.523-.877,1.391,1.391,0,0,1,.9-.331.873.873,0,0,1,.666.25A.9.9,0,0,1,10205.7,9119.933Z" fill="#46495b"/>
          </g>
        </g>
        <g id="Group_569" data-name="Group 569">
          <g id="Group_564" data-name="Group 564">
            <g id="Group_563" data-name="Group 563">
              <path id="Path_406" data-name="Path 406" d="M10248.393,9155.163h-83.624a.717.717,0,0,1,0-1.435h83.624a.717.717,0,1,1,0,1.435Z" fill="#46495b"/>
            </g>
          </g>
          <g id="Group_566" data-name="Group 566">
            <g id="Group_565" data-name="Group 565">
              <path id="Path_407" data-name="Path 407" d="M10337.889,9155.163h-83.624a.717.717,0,0,1,0-1.435h83.624a.717.717,0,1,1,0,1.435Z" fill="#46495b"/>
            </g>
          </g>
          <g id="Group_568" data-name="Group 568">
            <g id="Group_567" data-name="Group 567">
              <path id="Path_408" data-name="Path 408" d="M10374.767,9155.163H10344.7a.717.717,0,0,1,0-1.435h30.066a.717.717,0,1,1,0,1.435Z" fill="#46495b"/>
            </g>
          </g>
        </g>
        <g id="Group_576" data-name="Group 576">
          <g id="Group_571" data-name="Group 571">
            <g id="Group_570" data-name="Group 570">
              <path id="Path_409" data-name="Path 409" d="M10206.112,9164.484h-41.344a.717.717,0,0,1,0-1.435h41.344a.717.717,0,0,1,0,1.435Z" fill="#46495b"/>
            </g>
          </g>
          <g id="Group_573" data-name="Group 573">
            <g id="Group_572" data-name="Group 572">
              <path id="Path_410" data-name="Path 410" d="M10323.795,9164.484h-111.811a.717.717,0,1,1,0-1.435h111.811a.717.717,0,0,1,0,1.435Z" fill="#46495b"/>
            </g>
          </g>
          <g id="Group_575" data-name="Group 575">
            <g id="Group_574" data-name="Group 574">
              <path id="Path_411" data-name="Path 411" d="M10360.673,9164.484H10329.2a.717.717,0,1,1,0-1.435h31.477a.717.717,0,0,1,0,1.435Z" fill="#46495b"/>
            </g>
          </g>
        </g>
        <g id="Group_583" data-name="Group 583">
          <g id="Group_578" data-name="Group 578">
            <g id="Group_577" data-name="Group 577">
              <path id="Path_412" data-name="Path 412" d="M10295.607,9173.8h-130.839a.717.717,0,0,1,0-1.434h130.839a.717.717,0,0,1,0,1.434Z" fill="#46495b"/>
            </g>
          </g>
          <g id="Group_580" data-name="Group 580">
            <g id="Group_579" data-name="Group 579">
              <path id="Path_413" data-name="Path 413" d="M10369.13,9173.8h-66.712a.717.717,0,0,1,0-1.434h66.712a.717.717,0,0,1,0,1.434Z" fill="#46495b"/>
            </g>
          </g>
          <g id="Group_582" data-name="Group 582">
            <g id="Group_581" data-name="Group 581">
              <path id="Path_414" data-name="Path 414" d="M10389.095,9173.8h-14.562a.717.717,0,0,1,0-1.434h14.562a.717.717,0,0,1,0,1.434Z" fill="#46495b"/>
            </g>
          </g>
        </g>
        <g id="Group_585" data-name="Group 585">
          <g id="Group_584" data-name="Group 584">
            <path id="Path_415" data-name="Path 415" d="M10337.889,9183.125h-173.12a.717.717,0,0,1,0-1.434h173.12a.717.717,0,1,1,0,1.434Z" fill="#46495b"/>
          </g>
        </g>
        <g id="Group_590" data-name="Group 590">
          <g id="Group_587" data-name="Group 587">
            <g id="Group_586" data-name="Group 586">
              <path id="Path_416" data-name="Path 416" d="M10225.138,9192.445h-60.369a.717.717,0,0,1,0-1.435h60.369a.717.717,0,1,1,0,1.435Z" fill="#46495b"/>
            </g>
          </g>
          <g id="Group_589" data-name="Group 589">
            <g id="Group_588" data-name="Group 588">
              <path id="Path_417" data-name="Path 417" d="M10278.459,9192.445h-47.214a.717.717,0,0,1,0-1.435h47.214a.717.717,0,0,1,0,1.435Z" fill="#46495b"/>
            </g>
          </g>
        </g>
      </g>
      <g id="Group_639" data-name="Group 639">
        <g id="Group_602" data-name="Group 602">
          <g id="Group_594" data-name="Group 594">
            <g id="Group_593" data-name="Group 593">
              <g id="Group_592" data-name="Group 592">
                <path id="Path_418" data-name="Path 418" d="M10131.086,9044.664a31.195,31.195,0,0,1-2.229,36.447,27.42,27.42,0,0,1-2.09,2.321,31.243,31.243,0,0,1-48.52-38.769h-1.642a32.65,32.65,0,0,0,51.157,39.766,28.8,28.8,0,0,0,2.189-2.433,32.572,32.572,0,0,0,2.774-37.333Z" fill="#f3967a" opacity="0.56"/>
              </g>
            </g>
          </g>
          <g id="Group_601" data-name="Group 601">
            <g id="Group_596" data-name="Group 596">
              <g id="Group_595" data-name="Group 595">
                <path id="Path_419" data-name="Path 419" d="M10113.26,9073.674l.016,0c7.737-2.518,5.147-17.08,3.751-22.984a2.729,2.729,0,0,0,1.766-1.316,7.124,7.124,0,0,0,.339-4.705h-24.718a6.76,6.76,0,0,0-.254,1.269s1.37,4.1-1.205,4.714-1.425,7.221.4,8.97.686,2.3,1.657,5.418a5.014,5.014,0,0,0,3.564,3.3l-1.927,13.6-1.968.019h-.141l-12.91,1.521a31.944,31.944,0,0,0,45.636.465,28.127,28.127,0,0,0,2.143-2.382l-16.848-.292Zm-16.232-13.192a8.8,8.8,0,0,0,1.009.888A5.973,5.973,0,0,1,10097.027,9060.481Z" fill="#f3967a" opacity="0.56"/>
              </g>
            </g>
            <g id="Group_598" data-name="Group 598">
              <g id="Group_597" data-name="Group 597">
                <path id="Path_420" data-name="Path 420" d="M10099.574,9056.652a8.654,8.654,0,0,0-1.188-.389A7.108,7.108,0,0,1,10099.574,9056.652Z" fill="#f3967a" opacity="0.56"/>
              </g>
            </g>
            <g id="Group_600" data-name="Group 600">
              <g id="Group_599" data-name="Group 599">
                <path id="Path_421" data-name="Path 421" d="M10096.8,9060.222c.056.063.107.13.163.189C10096.912,9060.348,10096.85,9060.286,10096.8,9060.222Z" fill="#f3967a" opacity="0.56"/>
              </g>
            </g>
          </g>
        </g>
        <g id="Group_605" data-name="Group 605">
          <g id="Group_604" data-name="Group 604">
            <g id="Group_603" data-name="Group 603">
              <path id="Path_422" data-name="Path 422" d="M10402.737,9044.664v40.168a7.761,7.761,0,0,1-7.751,7.752h-232.963a7.76,7.76,0,0,1-7.752-7.752V9064.51l-6.674-5.671a2.114,2.114,0,0,1,0-3.222l6.674-5.674v-5.279h-1.409v4.627l-6.177,5.252a3.522,3.522,0,0,0,0,5.369l6.177,5.251v19.669a9.171,9.171,0,0,0,9.161,9.161h232.963a9.172,9.172,0,0,0,9.161-9.161v-40.168Z" fill="#f3967a" opacity="0.56"/>
            </g>
          </g>
        </g>
        <g id="Group_615" data-name="Group 615">
          <g id="Group_608" data-name="Group 608">
            <g id="Group_607" data-name="Group 607">
              <g id="Group_606" data-name="Group 606">
                <path id="Path_423" data-name="Path 423" d="M10206.112,9052.532h-41.344a.7.7,0,0,1,0-1.409h41.344a.7.7,0,0,1,0,1.409Z" fill="#f3967a" opacity="0.56"/>
              </g>
            </g>
          </g>
          <g id="Group_611" data-name="Group 611">
            <g id="Group_610" data-name="Group 610">
              <g id="Group_609" data-name="Group 609">
                <path id="Path_424" data-name="Path 424" d="M10323.794,9052.532h-111.81a.7.7,0,1,1,0-1.409h111.81a.7.7,0,1,1,0,1.409Z" fill="#f3967a" opacity="0.56"/>
              </g>
            </g>
          </g>
          <g id="Group_614" data-name="Group 614">
            <g id="Group_613" data-name="Group 613">
              <g id="Group_612" data-name="Group 612">
                <path id="Path_425" data-name="Path 425" d="M10360.673,9052.532H10329.2a.7.7,0,1,1,0-1.409h31.475a.7.7,0,1,1,0,1.409Z" fill="#f3967a" opacity="0.56"/>
              </g>
            </g>
          </g>
        </g>
        <g id="Group_625" data-name="Group 625">
          <g id="Group_618" data-name="Group 618">
            <g id="Group_617" data-name="Group 617">
              <g id="Group_616" data-name="Group 616">
                <path id="Path_426" data-name="Path 426" d="M10244.095,9061.852h-79.326a.7.7,0,0,1,0-1.408h79.326a.7.7,0,1,1,0,1.408Z" fill="#f3967a" opacity="0.56"/>
              </g>
            </g>
          </g>
          <g id="Group_621" data-name="Group 621">
            <g id="Group_620" data-name="Group 620">
              <g id="Group_619" data-name="Group 619">
                <path id="Path_427" data-name="Path 427" d="M10328,9061.852h-77.378a.7.7,0,1,1,0-1.408H10328a.7.7,0,1,1,0,1.408Z" fill="#f3967a" opacity="0.56"/>
              </g>
            </g>
          </g>
          <g id="Group_624" data-name="Group 624">
            <g id="Group_623" data-name="Group 623">
              <g id="Group_622" data-name="Group 622">
                <path id="Path_428" data-name="Path 428" d="M10380.64,9061.852h-48.094a.7.7,0,0,1,0-1.408h48.094a.7.7,0,1,1,0,1.408Z" fill="#f3967a" opacity="0.56"/>
              </g>
            </g>
          </g>
        </g>
        <g id="Group_628" data-name="Group 628">
          <g id="Group_627" data-name="Group 627">
            <g id="Group_626" data-name="Group 626">
              <path id="Path_429" data-name="Path 429" d="M10254.265,9071.173h-89.5a.705.705,0,0,1,0-1.41h89.5a.705.705,0,0,1,0,1.41Z" fill="#f3967a" opacity="0.56"/>
            </g>
          </g>
        </g>
        <g id="Group_638" data-name="Group 638">
          <g id="Group_631" data-name="Group 631">
            <g id="Group_630" data-name="Group 630">
              <g id="Group_629" data-name="Group 629">
                <path id="Path_430" data-name="Path 430" d="M10225.138,9080.493h-60.369a.7.7,0,0,1,0-1.409h60.369a.7.7,0,1,1,0,1.409Z" fill="#f3967a" opacity="0.56"/>
              </g>
            </g>
          </g>
          <g id="Group_634" data-name="Group 634">
            <g id="Group_633" data-name="Group 633">
              <g id="Group_632" data-name="Group 632">
                <path id="Path_431" data-name="Path 431" d="M10348.929,9080.493h-117.684a.7.7,0,1,1,0-1.409h117.684a.7.7,0,1,1,0,1.409Z" fill="#f3967a" opacity="0.56"/>
              </g>
            </g>
          </g>
          <g id="Group_637" data-name="Group 637">
            <g id="Group_636" data-name="Group 636">
              <g id="Group_635" data-name="Group 635">
                <path id="Path_432" data-name="Path 432" d="M10307.31,9071.173h-47.215a.705.705,0,0,1,0-1.41h47.215a.705.705,0,0,1,0,1.41Z" fill="#f3967a" opacity="0.56"/>
              </g>
            </g>
          </g>
        </g>
      </g>
      <g id="Group_731" data-name="Group 731" opacity="0.56">
        <g id="Group_643" data-name="Group 643">
          <g id="Group_642" data-name="Group 642">
            <g id="Group_641" data-name="Group 641">
              <g id="Group_640" data-name="Group 640">
                <path id="Path_433" data-name="Path 433" d="M10081.178,9305.752a31.228,31.228,0,1,1,47.685-.764c-.2.255-.428.509-.647.764h1.836a32.669,32.669,0,1,0-50.744,0Z" fill="#f3967a"/>
              </g>
            </g>
          </g>
        </g>
        <g id="Group_646" data-name="Group 646">
          <g id="Group_645" data-name="Group 645">
            <g id="Group_644" data-name="Group 644">
              <path id="Path_434" data-name="Path 434" d="M10152.862,9289.042v16.71h1.409v-17.363l-6.674-5.672a2.114,2.114,0,0,1,0-3.222l6.674-5.672v-12.111a7.76,7.76,0,0,1,7.752-7.752h232.963a7.761,7.761,0,0,1,7.751,7.752v44.04h1.41v-44.04a9.172,9.172,0,0,0-9.161-9.161h-232.963a9.171,9.171,0,0,0-9.161,9.161v11.459l-6.177,5.251a3.522,3.522,0,0,0,0,5.369Z" fill="#f3967a"/>
            </g>
          </g>
        </g>
        <g id="Group_662" data-name="Group 662">
          <g id="Group_649" data-name="Group 649">
            <g id="Group_648" data-name="Group 648">
              <g id="Group_647" data-name="Group 647">
                <path id="Path_435" data-name="Path 435" d="M10280.921,9228.715l1.768,3.579a1.282,1.282,0,0,0,.964.7l3.949.574a1.279,1.279,0,0,1,.709,2.184l-2.857,2.785a1.279,1.279,0,0,0-.368,1.134l.674,3.935a1.279,1.279,0,0,1-1.856,1.349l-3.533-1.857a1.286,1.286,0,0,0-1.192,0l-3.533,1.857a1.279,1.279,0,0,1-1.856-1.349l.674-3.935a1.279,1.279,0,0,0-.368-1.134l-2.857-2.785a1.279,1.279,0,0,1,.71-2.184l3.949-.574a1.283,1.283,0,0,0,.964-.7l1.767-3.579A1.28,1.28,0,0,1,10280.921,9228.715Z" fill="#f3967a"/>
              </g>
            </g>
          </g>
          <g id="Group_652" data-name="Group 652">
            <g id="Group_651" data-name="Group 651">
              <g id="Group_650" data-name="Group 650">
                <path id="Path_436" data-name="Path 436" d="M10301.523,9228.715l1.766,3.579a1.283,1.283,0,0,0,.964.7l3.95.574a1.28,1.28,0,0,1,.71,2.184l-2.859,2.785a1.287,1.287,0,0,0-.368,1.134l.676,3.935a1.28,1.28,0,0,1-1.858,1.349l-3.533-1.857a1.283,1.283,0,0,0-1.19,0l-3.533,1.857a1.28,1.28,0,0,1-1.858-1.349l.676-3.935a1.284,1.284,0,0,0-.368-1.134l-2.858-2.785a1.28,1.28,0,0,1,.709-2.184l3.95-.574a1.282,1.282,0,0,0,.964-.7l1.767-3.579A1.281,1.281,0,0,1,10301.523,9228.715Z" fill="#f3967a"/>
              </g>
            </g>
          </g>
          <g id="Group_655" data-name="Group 655">
            <g id="Group_654" data-name="Group 654">
              <g id="Group_653" data-name="Group 653">
                <path id="Path_437" data-name="Path 437" d="M10322.124,9228.715l1.767,3.579a1.285,1.285,0,0,0,.965.7l3.949.574a1.279,1.279,0,0,1,.709,2.184l-2.857,2.785a1.279,1.279,0,0,0-.368,1.134l.675,3.935a1.28,1.28,0,0,1-1.857,1.349l-3.533-1.857a1.286,1.286,0,0,0-1.192,0l-3.533,1.857a1.279,1.279,0,0,1-1.856-1.349l.675-3.935a1.282,1.282,0,0,0-.369-1.134l-2.857-2.785a1.28,1.28,0,0,1,.71-2.184l3.949-.574a1.283,1.283,0,0,0,.964-.7l1.767-3.579A1.28,1.28,0,0,1,10322.124,9228.715Z" fill="#f3967a"/>
              </g>
            </g>
          </g>
          <g id="Group_658" data-name="Group 658">
            <g id="Group_657" data-name="Group 657">
              <g id="Group_656" data-name="Group 656">
                <path id="Path_438" data-name="Path 438" d="M10342.726,9228.715l1.767,3.579a1.283,1.283,0,0,0,.964.7l3.95.574a1.28,1.28,0,0,1,.71,2.184l-2.858,2.785a1.285,1.285,0,0,0-.369,1.134l.676,3.935a1.279,1.279,0,0,1-1.857,1.349l-3.533-1.857a1.285,1.285,0,0,0-1.191,0l-3.533,1.857a1.279,1.279,0,0,1-1.857-1.349l.674-3.935a1.281,1.281,0,0,0-.367-1.134l-2.858-2.785a1.28,1.28,0,0,1,.709-2.184l3.95-.574a1.283,1.283,0,0,0,.964-.7l1.767-3.579A1.28,1.28,0,0,1,10342.726,9228.715Z" fill="#f3967a"/>
              </g>
            </g>
          </g>
          <g id="Group_661" data-name="Group 661">
            <g id="Group_660" data-name="Group 660">
              <g id="Group_659" data-name="Group 659">
                <path id="Path_439" data-name="Path 439" d="M10363.327,9228.715l1.767,3.579a1.283,1.283,0,0,0,.964.7l3.95.574a1.28,1.28,0,0,1,.709,2.184l-2.857,2.785a1.281,1.281,0,0,0-.368,1.134l.675,3.935a1.28,1.28,0,0,1-1.858,1.349l-3.532-1.857a1.285,1.285,0,0,0-1.191,0l-3.533,1.857a1.28,1.28,0,0,1-1.857-1.349l.675-3.935a1.284,1.284,0,0,0-.368-1.134l-2.859-2.785a1.28,1.28,0,0,1,.71-2.184l3.95-.574a1.283,1.283,0,0,0,.964-.7l1.767-3.579A1.28,1.28,0,0,1,10363.327,9228.715Z" fill="#f3967a"/>
              </g>
            </g>
          </g>
        </g>
        <g id="Group_683" data-name="Group 683">
          <g id="Group_664" data-name="Group 664">
            <g id="Group_663" data-name="Group 663">
              <path id="Path_440" data-name="Path 440" d="M10174.93,9231.309l-.134.592a4.714,4.714,0,0,0-.663.08,4.839,4.839,0,0,0-.6.135.875.875,0,0,0-.5.366,1.939,1.939,0,0,0-.225.541l-2.151,9.237a1.291,1.291,0,0,0-.026.161q-.009.089-.009.144a.692.692,0,0,0,.08.334.726.726,0,0,0,.269.265,1.86,1.86,0,0,0,.532.161,4.5,4.5,0,0,0,.64.089l-.144.59h-5.594l.143-.59c.214-.011.483-.034.8-.067a2.127,2.127,0,0,0,.681-.147,1.753,1.753,0,0,0,.506-.394,1.16,1.16,0,0,0,.254-.545l2.2-9.457h-.1l-6.919,11h-.424l-1.593-11.218h-.092l-1.8,7.8c-.072.315-.133.623-.181.921a4.869,4.869,0,0,0-.07.726,1.78,1.78,0,0,0,.062.5.9.9,0,0,0,.179.344,1.446,1.446,0,0,0,.681.34,6.324,6.324,0,0,0,.813.2l-.143.59h-5.138l.145-.59c.28-.029.56-.071.841-.125a2.255,2.255,0,0,0,.778-.3,1.849,1.849,0,0,0,.607-.788,9.325,9.325,0,0,0,.512-1.718l1.522-6.585c.031-.136.053-.26.068-.37a2.489,2.489,0,0,0,.022-.327,1.4,1.4,0,0,0-.072-.479,1.064,1.064,0,0,0-.188-.326,1.265,1.265,0,0,0-.63-.365,3.494,3.494,0,0,0-.729-.125l.135-.592h4.289l1.382,9.548,4.934-7.99q.277-.457.51-.94a5.162,5.162,0,0,0,.269-.617Z" fill="#f3967a"/>
            </g>
          </g>
          <g id="Group_666" data-name="Group 666">
            <g id="Group_665" data-name="Group 665">
              <path id="Path_441" data-name="Path 441" d="M10180.355,9242.707h-.055a9.21,9.21,0,0,1-1.565,1.082,3.562,3.562,0,0,1-1.693.393,1.848,1.848,0,0,1-1.36-.5,1.748,1.748,0,0,1-.5-1.3,4.45,4.45,0,0,1,.036-.511c.024-.2.08-.488.169-.876l.7-2.792c.066-.268.116-.5.152-.7a3.318,3.318,0,0,0,.053-.576.974.974,0,0,0-.165-.668.987.987,0,0,0-.674-.165,2.132,2.132,0,0,0-.5.076c-.2.049-.361.091-.475.121l.135-.577a10.41,10.41,0,0,1,1.229-.477,3.1,3.1,0,0,1,.855-.163,1.5,1.5,0,0,1,1.06.322,1.26,1.26,0,0,1,.344.966,3.489,3.489,0,0,1-.035.438,4.881,4.881,0,0,1-.106.556l-.812,3.265q-.088.375-.151.7a2.986,2.986,0,0,0-.063.5,1.43,1.43,0,0,0,.292.947,1.05,1.05,0,0,0,.855.351,2.746,2.746,0,0,0,1.277-.323,4.515,4.515,0,0,0,1.17-.886l1.479-6.692,1.545-.106.107.135-1.537,7a12.073,12.073,0,0,1-.87,2.63,5.961,5.961,0,0,1-1.234,1.763,4.607,4.607,0,0,1-1.6,1.021,5.714,5.714,0,0,1-1.959.313,5.351,5.351,0,0,1-1.208-.107,2,2,0,0,1-.706-.294.91.91,0,0,1-.349-.4,1.17,1.17,0,0,1-.091-.447,1.069,1.069,0,0,1,.233-.68.8.8,0,0,1,.672-.294.871.871,0,0,1,.563.187,1.8,1.8,0,0,1,.376.411,3.637,3.637,0,0,1,.295.547c.09.2.161.363.216.483h.214a2.682,2.682,0,0,0,1.079-.251,3.074,3.074,0,0,0,1.042-.779,5.811,5.811,0,0,0,.918-1.475A9.839,9.839,0,0,0,10180.355,9242.707Z" fill="#f3967a"/>
            </g>
          </g>
          <g id="Group_668" data-name="Group 668">
            <g id="Group_667" data-name="Group 667">
              <path id="Path_442" data-name="Path 442" d="M10193.032,9236.077l-1.577,7.39a6.014,6.014,0,0,1-1.77,3.248,4.063,4.063,0,0,1-2.778,1.261,1.819,1.819,0,0,1-1.156-.3.931.931,0,0,1-.371-.756,1.066,1.066,0,0,1,.232-.68.8.8,0,0,1,.671-.294.934.934,0,0,1,.488.125,1.448,1.448,0,0,1,.37.312,3.572,3.572,0,0,1,.282.412q.158.259.273.447a1.538,1.538,0,0,0,1.177-.931,9.523,9.523,0,0,0,.845-2.5l1.648-7.729h-1.747l.187-.813h1.725l.129-.606a6.473,6.473,0,0,1,.68-1.868,6.289,6.289,0,0,1,1.055-1.411,4.415,4.415,0,0,1,1.32-.9,3.484,3.484,0,0,1,1.418-.326,1.827,1.827,0,0,1,1.158.3.929.929,0,0,1,.372.755,1.11,1.11,0,0,1-.22.68.8.8,0,0,1-.687.3.958.958,0,0,1-.484-.12,1.367,1.367,0,0,1-.368-.318,3.064,3.064,0,0,1-.288-.42q-.107-.2-.27-.439a1.408,1.408,0,0,0-1.095.814,8.848,8.848,0,0,0-.854,2.615l-.2.946h2.257l-.188.813Z" fill="#f3967a"/>
            </g>
          </g>
          <g id="Group_670" data-name="Group 670">
            <g id="Group_669" data-name="Group 669">
              <path id="Path_443" data-name="Path 443" d="M10202.914,9236.831a2.4,2.4,0,0,1-.594,1.633,4.046,4.046,0,0,1-1.732,1.083,13.049,13.049,0,0,1-1.682.493,18.891,18.891,0,0,1-1.878.313,3.749,3.749,0,0,0,.522,2.161,1.755,1.755,0,0,0,1.534.748,2.823,2.823,0,0,0,1.579-.447,5.487,5.487,0,0,0,1.347-1.333l.511.375a5.619,5.619,0,0,1-1.79,1.745,4.226,4.226,0,0,1-2.228.652,3.168,3.168,0,0,1-2.42-.886,3.526,3.526,0,0,1-.837-2.517,6.589,6.589,0,0,1,.353-2.153,6.22,6.22,0,0,1,1.034-1.876,5.12,5.12,0,0,1,1.624-1.345,4.467,4.467,0,0,1,2.124-.51,2.916,2.916,0,0,1,1.91.524A1.674,1.674,0,0,1,10202.914,9236.831Zm-1.646-.219a1.267,1.267,0,0,0-.1-.549.716.716,0,0,0-.251-.3.845.845,0,0,0-.34-.135,2.506,2.506,0,0,0-.366-.026,2.538,2.538,0,0,0-1.982,1.179,6.076,6.076,0,0,0-1.149,2.937c.418-.061.889-.145,1.414-.255a5.2,5.2,0,0,0,1.306-.433,2.675,2.675,0,0,0,1.105-.986A2.732,2.732,0,0,0,10201.268,9236.612Z" fill="#f3967a"/>
            </g>
          </g>
          <g id="Group_672" data-name="Group 672">
            <g id="Group_671" data-name="Group 671">
              <path id="Path_444" data-name="Path 444" d="M10211.556,9236.831a2.4,2.4,0,0,1-.594,1.633,4.037,4.037,0,0,1-1.731,1.083,13.062,13.062,0,0,1-1.683.493,18.8,18.8,0,0,1-1.878.313,3.748,3.748,0,0,0,.523,2.161,1.752,1.752,0,0,0,1.533.748,2.818,2.818,0,0,0,1.579-.447,5.506,5.506,0,0,0,1.348-1.333l.51.375a5.626,5.626,0,0,1-1.789,1.745,4.228,4.228,0,0,1-2.228.652,3.175,3.175,0,0,1-2.422-.886,3.53,3.53,0,0,1-.836-2.517,6.564,6.564,0,0,1,.354-2.153,6.241,6.241,0,0,1,1.034-1.876,5.1,5.1,0,0,1,1.624-1.345,4.462,4.462,0,0,1,2.125-.51,2.913,2.913,0,0,1,1.908.524A1.674,1.674,0,0,1,10211.556,9236.831Zm-1.646-.219a1.265,1.265,0,0,0-.1-.549.7.7,0,0,0-.251-.3.84.84,0,0,0-.34-.135,2.493,2.493,0,0,0-.365-.026,2.535,2.535,0,0,0-1.982,1.179,6.067,6.067,0,0,0-1.15,2.937c.418-.061.89-.145,1.414-.255a5.205,5.205,0,0,0,1.307-.433,2.672,2.672,0,0,0,1.1-.986A2.732,2.732,0,0,0,10209.91,9236.612Z" fill="#f3967a"/>
            </g>
          </g>
          <g id="Group_674" data-name="Group 674">
            <g id="Group_673" data-name="Group 673">
              <path id="Path_445" data-name="Path 445" d="M10218.214,9242.777h-.062c-.131.112-.3.262-.51.442a4.7,4.7,0,0,1-.652.479,4.922,4.922,0,0,1-.791.412,2.416,2.416,0,0,1-.89.143,2.442,2.442,0,0,1-2.032-.936,4.013,4.013,0,0,1-.737-2.549,6.061,6.061,0,0,1,.4-2.176,6.354,6.354,0,0,1,1.087-1.861,5.273,5.273,0,0,1,1.614-1.276,4.241,4.241,0,0,1,1.975-.488,4.768,4.768,0,0,1,1.226.161,3.958,3.958,0,0,1,1,.4l.7-3.043c.036-.161.061-.287.074-.376a1.635,1.635,0,0,0,.022-.3.789.789,0,0,0-.13-.491.743.743,0,0,0-.359-.251,2.2,2.2,0,0,0-.593-.107c-.251-.018-.476-.039-.68-.062l.127-.548,3.622-.2.088.135-2.479,10.725c-.051.2-.1.424-.149.677a3.423,3.423,0,0,0-.077.576.892.892,0,0,0,.215.694,1.129,1.129,0,0,0,.728.183,3.026,3.026,0,0,0,.48-.054,2.916,2.916,0,0,0,.485-.116l-.135.573a8.727,8.727,0,0,1-1.247.474,3.476,3.476,0,0,1-.914.135,1.5,1.5,0,0,1-1.025-.336A1.319,1.319,0,0,1,10218.214,9242.777Zm1.275-5.705a1.477,1.477,0,0,0-.136-.506,1.75,1.75,0,0,0-.3-.444,1.624,1.624,0,0,0-.53-.371,1.891,1.891,0,0,0-.775-.147,2.239,2.239,0,0,0-1.3.43,4.1,4.1,0,0,0-1.079,1.146,5.958,5.958,0,0,0-.716,1.661,7.268,7.268,0,0,0-.27,1.949,6.593,6.593,0,0,0,.063.967,2.574,2.574,0,0,0,.242.779,1.283,1.283,0,0,0,.482.522,1.551,1.551,0,0,0,.832.193,2.363,2.363,0,0,0,1.068-.295,5.2,5.2,0,0,0,1.284-1.03Z" fill="#f3967a"/>
            </g>
          </g>
          <g id="Group_676" data-name="Group 676">
            <g id="Group_675" data-name="Group 675">
              <path id="Path_446" data-name="Path 446" d="M10231.972,9238.389a6.322,6.322,0,0,1-1.565,4.156,5.565,5.565,0,0,1-1.637,1.266,4.215,4.215,0,0,1-1.933.462,6.343,6.343,0,0,1-1.354-.13,3.76,3.76,0,0,1-1-.354,2.905,2.905,0,0,1-.7-.523,4.054,4.054,0,0,1-.5-.649l2.307-10.134c.03-.139.056-.256.075-.354a1.389,1.389,0,0,0,.032-.3.957.957,0,0,0-.107-.5.69.69,0,0,0-.3-.265,1.572,1.572,0,0,0-.473-.107c-.19-.018-.385-.039-.579-.062l.123-.548,3.3-.2.089.135-1.351,5.94h.034a5.828,5.828,0,0,1,1.422-.99,2.932,2.932,0,0,1,1.2-.272,2.653,2.653,0,0,1,2.142.927A3.758,3.758,0,0,1,10231.972,9238.389Zm-1.843.044a5.435,5.435,0,0,0-.085-.952,2.3,2.3,0,0,0-.282-.8,1.5,1.5,0,0,0-.565-.537,1.814,1.814,0,0,0-.888-.2,1.615,1.615,0,0,0-.592.106,3.685,3.685,0,0,0-.573.286,3.521,3.521,0,0,0-.508.39c-.164.152-.314.289-.452.407l-1.189,5.312a1.056,1.056,0,0,0,.161.395,1.448,1.448,0,0,0,.34.376,1.8,1.8,0,0,0,.565.314,2.129,2.129,0,0,0,.69.106,2.345,2.345,0,0,0,1.33-.417,3.7,3.7,0,0,0,1.071-1.124,5.811,5.811,0,0,0,.734-1.719A7.857,7.857,0,0,0,10230.129,9238.433Z" fill="#f3967a"/>
            </g>
          </g>
          <g id="Group_678" data-name="Group 678">
            <g id="Group_677" data-name="Group 677">
              <path id="Path_447" data-name="Path 447" d="M10238.817,9242.821h-.063c-.131.107-.288.244-.47.407a4.285,4.285,0,0,1-.638.471,4.6,4.6,0,0,1-.761.39,2.36,2.36,0,0,1-.893.165,2.451,2.451,0,0,1-2.032-.93,3.991,3.991,0,0,1-.738-2.544,5.873,5.873,0,0,1,.412-2.158,6.411,6.411,0,0,1,1.135-1.881,5.435,5.435,0,0,1,1.637-1.285,4.193,4.193,0,0,1,1.949-.488,4.276,4.276,0,0,1,1.212.17,3.487,3.487,0,0,1,.906.387l1.643-.422.107.134-1.362,5.777c-.048.186-.1.41-.147.677a3.521,3.521,0,0,0-.077.586.877.877,0,0,0,.214.689,1.145,1.145,0,0,0,.728.179,3.034,3.034,0,0,0,.482-.054,2.876,2.876,0,0,0,.484-.116l-.134.573c-.539.215-.938.369-1.2.465a2.812,2.812,0,0,1-.958.144,1.387,1.387,0,0,1-1.023-.375A1.432,1.432,0,0,1,10238.817,9242.821Zm1.288-5.659a2.478,2.478,0,0,0-.062-.565,1.2,1.2,0,0,0-.26-.5,1.243,1.243,0,0,0-.493-.358,2.007,2.007,0,0,0-.787-.134,2.2,2.2,0,0,0-1.27.43,4.377,4.377,0,0,0-1.111,1.156,5.957,5.957,0,0,0-.76,1.647,6.941,6.941,0,0,0-.234,2.929,2.506,2.506,0,0,0,.243.771,1.236,1.236,0,0,0,.49.529,1.591,1.591,0,0,0,.813.187,2.291,2.291,0,0,0,1.049-.282,5.055,5.055,0,0,0,1.237-.989Z" fill="#f3967a"/>
            </g>
          </g>
          <g id="Group_680" data-name="Group 680">
            <g id="Group_679" data-name="Group 679">
              <path id="Path_448" data-name="Path 448" d="M10247.072,9244.254a3.336,3.336,0,0,1-2.474-.912,3.527,3.527,0,0,1-.906-2.6,6.666,6.666,0,0,1,.344-2.145,6.186,6.186,0,0,1,.961-1.823,4.86,4.86,0,0,1,1.562-1.3,4.374,4.374,0,0,1,2.1-.506,3.029,3.029,0,0,1,1.946.541,1.689,1.689,0,0,1,.666,1.365,1.983,1.983,0,0,1-.291,1.082.957.957,0,0,1-.871.465.982.982,0,0,1-.725-.241.727.727,0,0,1-.242-.533,2.322,2.322,0,0,1,.192-.78c.13-.331.233-.6.309-.8a.657.657,0,0,0-.437-.353,2.264,2.264,0,0,0-.707-.111,2.5,2.5,0,0,0-2.1,1.418,6.452,6.452,0,0,0-.882,3.476,3.251,3.251,0,0,0,.568,2.017,1.829,1.829,0,0,0,1.538.748,2.664,2.664,0,0,0,1.546-.466,5.485,5.485,0,0,0,1.293-1.314l.511.375a5.666,5.666,0,0,1-1.676,1.686A3.932,3.932,0,0,1,10247.072,9244.254Z" fill="#f3967a"/>
            </g>
          </g>
          <g id="Group_682" data-name="Group 682">
            <g id="Group_681" data-name="Group 681">
              <path id="Path_449" data-name="Path 449" d="M10260.986,9236a1.051,1.051,0,0,1-.311.728.993.993,0,0,1-.766.336,2.146,2.146,0,0,1-.583-.079,3.971,3.971,0,0,1-.626-.242,8.454,8.454,0,0,0-1.015.684c-.35.273-.729.6-1.14.987q.51,1.323.863,2.17c.234.564.438,1.026.6,1.384a2.474,2.474,0,0,0,.712.952,1.422,1.422,0,0,0,.855.282,3.7,3.7,0,0,0,.59-.063,4.214,4.214,0,0,0,.581-.133l-.134.586a10.459,10.459,0,0,1-1.308.453,4.038,4.038,0,0,1-.959.115,1.542,1.542,0,0,1-.979-.318,3.02,3.02,0,0,1-.784-1.148q-.365-.8-.651-1.57t-.562-1.462l-1.032.873-.774,3.473h-1.671l2.663-11.521c.041-.185.068-.314.084-.386a1.286,1.286,0,0,0,.023-.269.946.946,0,0,0-.109-.5.677.677,0,0,0-.3-.265,1.608,1.608,0,0,0-.477-.107c-.192-.018-.387-.039-.584-.062l.125-.548,3.33-.2.089.135-2.19,9.312h.036q1.011-1.09,1.838-1.893t1.729-1.632a6.728,6.728,0,0,1,1.02-.81,1.579,1.579,0,0,1,.8-.219,1.038,1.038,0,0,1,.734.255A.9.9,0,0,1,10260.986,9236Z" fill="#f3967a"/>
            </g>
          </g>
        </g>
        <g id="Group_690" data-name="Group 690">
          <g id="Group_686" data-name="Group 686">
            <g id="Group_685" data-name="Group 685">
              <g id="Group_684" data-name="Group 684">
                <path id="Path_450" data-name="Path 450" d="M10206.112,9267.09h-41.344a.7.7,0,0,1,0-1.409h41.344a.7.7,0,0,1,0,1.409Z" fill="#f3967a"/>
              </g>
            </g>
          </g>
          <g id="Group_689" data-name="Group 689">
            <g id="Group_688" data-name="Group 688">
              <g id="Group_687" data-name="Group 687">
                <path id="Path_451" data-name="Path 451" d="M10337.888,9267.09h-125.9a.7.7,0,1,1,0-1.409h125.9a.7.7,0,1,1,0,1.409Z" fill="#f3967a"/>
              </g>
            </g>
          </g>
        </g>
        <g id="Group_700" data-name="Group 700">
          <g id="Group_693" data-name="Group 693">
            <g id="Group_692" data-name="Group 692">
              <g id="Group_691" data-name="Group 691">
                <path id="Path_452" data-name="Path 452" d="M10192.018,9276.411h-27.249a.7.7,0,0,1,0-1.409h27.249a.7.7,0,0,1,0,1.409Z" fill="#f3967a"/>
              </g>
            </g>
          </g>
          <g id="Group_696" data-name="Group 696">
            <g id="Group_695" data-name="Group 695">
              <g id="Group_694" data-name="Group 694">
                <path id="Path_453" data-name="Path 453" d="M10323.794,9276.411h-125.9a.7.7,0,1,1,0-1.409h125.9a.7.7,0,1,1,0,1.409Z" fill="#f3967a"/>
              </g>
            </g>
          </g>
          <g id="Group_699" data-name="Group 699">
            <g id="Group_698" data-name="Group 698">
              <g id="Group_697" data-name="Group 697">
                <path id="Path_454" data-name="Path 454" d="M10346.58,9276.411H10329.2a.7.7,0,1,1,0-1.409h17.382a.7.7,0,0,1,0,1.409Z" fill="#f3967a"/>
              </g>
            </g>
          </g>
        </g>
        <g id="Group_710" data-name="Group 710">
          <g id="Group_703" data-name="Group 703">
            <g id="Group_702" data-name="Group 702">
              <g id="Group_701" data-name="Group 701">
                <path id="Path_455" data-name="Path 455" d="M10309.7,9285.732h-144.932a.705.705,0,0,1,0-1.41H10309.7a.705.705,0,0,1,0,1.41Z" fill="#f3967a"/>
              </g>
            </g>
          </g>
          <g id="Group_706" data-name="Group 706">
            <g id="Group_705" data-name="Group 705">
              <g id="Group_704" data-name="Group 704">
                <path id="Path_456" data-name="Path 456" d="M10369.13,9285.732h-66.711a.705.705,0,0,1,0-1.41h66.711a.705.705,0,0,1,0,1.41Z" fill="#f3967a"/>
              </g>
            </g>
          </g>
          <g id="Group_709" data-name="Group 709">
            <g id="Group_708" data-name="Group 708">
              <g id="Group_707" data-name="Group 707">
                <path id="Path_457" data-name="Path 457" d="M10389.1,9285.732h-14.563a.705.705,0,0,1,0-1.41h14.563a.705.705,0,0,1,0,1.41Z" fill="#f3967a"/>
              </g>
            </g>
          </g>
        </g>
        <g id="Group_713" data-name="Group 713">
          <g id="Group_712" data-name="Group 712">
            <g id="Group_711" data-name="Group 711">
              <path id="Path_458" data-name="Path 458" d="M10225.138,9295.052h-60.369a.7.7,0,0,1,0-1.409h60.369a.7.7,0,1,1,0,1.409Z" fill="#f3967a"/>
            </g>
          </g>
        </g>
        <g id="Group_716" data-name="Group 716">
          <g id="Group_715" data-name="Group 715">
            <g id="Group_714" data-name="Group 714">
              <path id="Path_459" data-name="Path 459" d="M10289.735,9295.052h-60.369a.7.7,0,0,1,0-1.409h60.369a.7.7,0,1,1,0,1.409Z" fill="#f3967a"/>
            </g>
          </g>
        </g>
        <g id="Group_723" data-name="Group 723">
          <g id="Group_719" data-name="Group 719">
            <g id="Group_718" data-name="Group 718">
              <g id="Group_717" data-name="Group 717">
                <path id="Path_460" data-name="Path 460" d="M10225.138,9304.373h-60.369a.7.7,0,0,1,0-1.409h60.369a.7.7,0,1,1,0,1.409Z" fill="#f3967a"/>
              </g>
            </g>
          </g>
          <g id="Group_722" data-name="Group 722">
            <g id="Group_721" data-name="Group 721">
              <g id="Group_720" data-name="Group 720">
                <path id="Path_461" data-name="Path 461" d="M10278.46,9304.373h-55.671a.7.7,0,1,1,0-1.409h55.671a.7.7,0,1,1,0,1.409Z" fill="#f3967a"/>
              </g>
            </g>
          </g>
        </g>
        <g id="Group_727" data-name="Group 727">
          <g id="Group_726" data-name="Group 726">
            <g id="Group_725" data-name="Group 725">
              <g id="Group_724" data-name="Group 724">
                <path id="Path_462" data-name="Path 462" d="M10325.066,9304.373h-42.049a.7.7,0,0,1,0-1.409h42.049a.7.7,0,1,1,0,1.409Z" fill="#f3967a"/>
              </g>
            </g>
          </g>
        </g>
        <g id="Group_730" data-name="Group 730">
          <g id="Group_729" data-name="Group 729">
            <g id="Group_728" data-name="Group 728">
              <path id="Path_463" data-name="Path 463" d="M10096.7,9284.372a4.336,4.336,0,0,0,2.269,2.071c.678,6.1-1.888,14.63-2.691,17.109l-4.622,1.494-2.166.705h34.612a15.582,15.582,0,0,0-3.752-2.65,49.28,49.28,0,0,0-9.611-1.563,10,10,0,0,1-1.072-7.836c11.177-1.677,8.936-14.009,8.936-14.009-.027-.17-.056-.325-.084-.494.1-.07.212-.142.324-.226a6.709,6.709,0,0,0,2.832-5.82,5.528,5.528,0,0,0-2.325-4.242,6.378,6.378,0,0,0-7.512-.423c-.127.1-3.157-2.03-3.565-2.2a10.94,10.94,0,0,0-4.849-.662,14.12,14.12,0,0,0-8.019,3.481,12.858,12.858,0,0,0-3.764,7.271C10090.642,9282.5,10096.7,9284.386,10096.7,9284.372Z" fill="#f3967a"/>
            </g>
          </g>
        </g>
      </g>
      <g id="Group_733" data-name="Group 733">
        <g id="Group_732" data-name="Group 732">
          <path id="Path_464" data-name="Path 464" d="M10480.221,9045.2h-472.55a.717.717,0,0,1,0-1.435h472.55a.717.717,0,1,1,0,1.435Z" fill="#46495b"/>
        </g>
      </g>
      <g id="Group_735" data-name="Group 735">
        <g id="Group_734" data-name="Group 734">
          <path id="Path_465" data-name="Path 465" d="M10101.479,9279.063v0l.007.006Z" fill="#ffcdc7"/>
        </g>
      </g>
      <g id="Group_737" data-name="Group 737">
        <g id="Group_736" data-name="Group 736">
          <path id="Path_466" data-name="Path 466" d="M10110.129,9299.978c-.025-.045-.05-.091-.074-.137C10110.08,9299.888,10110.1,9299.933,10110.129,9299.978Z" fill="#ffcdc7"/>
        </g>
      </g>
      <g id="Group_739" data-name="Group 739">
        <g id="Group_738" data-name="Group 738">
          <path id="Path_467" data-name="Path 467" d="M10110.3,9300.291l-.021-.038Z" fill="#ffcdc7"/>
        </g>
      </g>
      <g id="Group_741" data-name="Group 741">
        <g id="Group_740" data-name="Group 740">
          <path id="Path_468" data-name="Path 468" d="M10095.449,9300.6c-.136.32-.229.531-.265.609l.256-.588,0-.009Z" fill="#ffcdc7"/>
        </g>
      </g>
      <g id="Group_743" data-name="Group 743">
        <g id="Group_742" data-name="Group 742">
          <path id="Path_469" data-name="Path 469" d="M10183.787,9313.657h-183.1a.717.717,0,0,1,0-1.435h183.1a.717.717,0,0,1,0,1.435Z" fill="#fff"/>
        </g>
      </g>
    </g>
    <g id="Group_746" data-name="Group 746">
      <g id="Group_745" data-name="Group 745">
        <path id="Path_470" data-name="Path 470" d="M10145.229,8900.958a7.138,7.138,0,1,0,7.139-7.139A7.138,7.138,0,0,0,10145.229,8900.958Z" fill="#ffb4ab"/>
      </g>
    </g>
    <g id="Group_748" data-name="Group 748">
      <g id="Group_747" data-name="Group 747">
        <path id="Path_471" data-name="Path 471" d="M10240.782,8898.042a7.854,7.854,0,1,1,7.854-7.854A7.863,7.863,0,0,1,10240.782,8898.042Zm0-14.275a6.421,6.421,0,1,0,6.421,6.422A6.429,6.429,0,0,0,10240.782,8883.767Z" fill="#ffb4ab"/>
      </g>
    </g>
    <g id="Group_750" data-name="Group 750">
      <g id="Group_749" data-name="Group 749">
        <path id="Path_472" data-name="Path 472" d="M10052.315,8912.9l-21.24-3.817,7.313-12.667Z" fill="#f3967a"/>
      </g>
    </g>
    <g id="Group_752" data-name="Group 752">
      <g id="Group_751" data-name="Group 751">
        <path id="Path_473" data-name="Path 473" d="M10393.823,8834.629a7.138,7.138,0,1,0,7.138-7.138A7.137,7.137,0,0,0,10393.823,8834.629Z" fill="#ffb4ab"/>
      </g>
    </g>
    <g id="Group_754" data-name="Group 754">
      <g id="Group_753" data-name="Group 753">
        <path id="Path_474" data-name="Path 474" d="M10200.405,8853a4.88,4.88,0,1,0,4.88-4.881A4.88,4.88,0,0,0,10200.405,8853Z" fill="#ffb4ab"/>
      </g>
    </g>
    <g id="Group_918" data-name="Group 918">
      <g id="Group_756" data-name="Group 756">
        <g id="Group_755" data-name="Group 755">
          <path id="Path_475" data-name="Path 475" d="M10283.777,8915.89s3.109-12.4,21.079-10.769l-3.1,14.268-7.436-1.7Z" fill="#464646"/>
        </g>
      </g>
      <g id="Group_758" data-name="Group 758">
        <g id="Group_757" data-name="Group 757">
          <path id="Path_476" data-name="Path 476" d="M10289.324,8913.929l-4.008-11.306c-1.258-3.55-8.361-4.965-10.856-8.121a3.483,3.483,0,0,1-1-2.17c.033-.815.992-1.582,1.664-1.121a2.082,2.082,0,0,1,2.722-3.061c.861-.466.205-1.869.659-2.572.511-.79,1.439-.142,1.98-.621,1.662-1.477.228-1.913,2.773-1.676,2.159.2,5.461,3.255,6.82,4.856,2.235,2.637,2.093,6.863,4.02,9.219l10.029,12.254a33.16,33.16,0,0,1-3.007,3.73c-.369.093-8.5.093-8.5.093Z" fill="#f9f6f2"/>
        </g>
      </g>
      <g id="Group_760" data-name="Group 760">
        <g id="Group_759" data-name="Group 759">
          <path id="Path_477" data-name="Path 477" d="M10119.832,8989.786s-12.415,10.454-5.445,27.442l5.445,0,5.554-20.811,1.089-6.146Z" fill="#46495b"/>
        </g>
      </g>
      <g id="Group_784" data-name="Group 784">
        <g id="Group_762" data-name="Group 762">
          <g id="Group_761" data-name="Group 761">
            <path id="Path_478" data-name="Path 478" d="M10109.856,8996.182a8.024,8.024,0,0,1-3.516-.97l-.274-.155.066-.309c.029-.135.733-3.3,3-4.313a6.153,6.153,0,0,1,3.214-.559,2.587,2.587,0,0,1,2.182,1.386c.68,1.516-.625,3.527-2.972,4.579A4.133,4.133,0,0,1,10109.856,8996.182Zm-2.8-1.569c.727.343,2.654,1.113,4.146.443,1.842-.825,3-2.4,2.538-3.441a1.777,1.777,0,0,0-1.5-.886,5.266,5.266,0,0,0-2.755.492C10107.992,8991.89,10107.285,8993.842,10107.058,8994.612Z" fill="#ef4e37"/>
          </g>
        </g>
        <g id="Group_764" data-name="Group 764">
          <g id="Group_763" data-name="Group 763">
            <path id="Path_479" data-name="Path 479" d="M10106.573,8994.886a.43.43,0,0,1-.431-.43v-8.373a.43.43,0,0,1,.86,0v8.373A.43.43,0,0,1,10106.573,8994.886Z" fill="#ef4e37"/>
          </g>
        </g>
        <g id="Group_766" data-name="Group 766">
          <g id="Group_765" data-name="Group 765">
            <path id="Path_480" data-name="Path 480" d="M10125.905,9017.226H10095.6V8975.6a7.952,7.952,0,0,1,7.515,4.731c.157.34.3.666.4.967a9.218,9.218,0,0,1,.5,1.816,66.1,66.1,0,0,0,2.483,11.278v.013c.092.262.17.51.262.745.339,1.007.68,1.895,1.006,2.679.105.262.209.51.314.732.418.928.8,1.659,1.11,2.209.156.261.287.482.405.666a6.194,6.194,0,0,0,.471.706l11.486,8.781Z" fill="#ef4e37"/>
          </g>
        </g>
        <g id="Group_779" data-name="Group 779">
          <g id="Group_769" data-name="Group 769">
            <g id="Group_768" data-name="Group 768">
              <g id="Group_767" data-name="Group 767">
                <path id="Path_481" data-name="Path 481" d="M10097.677,9017.226h-.771v-31.78a.365.365,0,0,1,.118-.288.386.386,0,0,1,.3-.1,5.232,5.232,0,0,0,5.566-4.443.366.366,0,0,1,.223-.274c.157.34.3.666.4.967a5.952,5.952,0,0,1-5.842,4.535Z" fill="#fff"/>
              </g>
            </g>
          </g>
          <g id="Group_772" data-name="Group 772">
            <g id="Group_771" data-name="Group 771">
              <g id="Group_770" data-name="Group 770">
                <path id="Path_482" data-name="Path 482" d="M10101.951,8997.311a.492.492,0,0,1-.04-.183.411.411,0,0,1,.21-.353l4.377-2.366c.092.262.17.51.262.745l-4.273,2.313A.4.4,0,0,1,10101.951,8997.311Z" fill="#fff"/>
              </g>
            </g>
          </g>
          <g id="Group_775" data-name="Group 775">
            <g id="Group_774" data-name="Group 774">
              <g id="Group_773" data-name="Group 773">
                <path id="Path_483" data-name="Path 483" d="M10103.205,9000.761a.328.328,0,0,1-.052-.183.411.411,0,0,1,.209-.354l4.4-2.392c.105.262.209.51.314.732l-4.353,2.352A.377.377,0,0,1,10103.205,9000.761Z" fill="#fff"/>
              </g>
            </g>
          </g>
          <g id="Group_778" data-name="Group 778">
            <g id="Group_777" data-name="Group 777">
              <g id="Group_776" data-name="Group 776">
                <path id="Path_484" data-name="Path 484" d="M10104.512,9003.753a.537.537,0,0,1-.039-.2.381.381,0,0,1,.2-.34l4.521-2.442c.156.261.287.482.405.666l-4.548,2.47A.4.4,0,0,1,10104.512,9003.753Z" fill="#fff"/>
              </g>
            </g>
          </g>
        </g>
        <g id="Group_781" data-name="Group 781">
          <g id="Group_780" data-name="Group 780">
            <path id="Path_485" data-name="Path 485" d="M10112.778,9004.219l-2.712-2.072s.607,4.04-4.45,6.245a8.591,8.591,0,0,0-5.4,6.7l-.415,2.142h15.573l.867-10.345Z" fill="#f9f6f2"/>
          </g>
        </g>
        <g id="Group_783" data-name="Group 783">
          <g id="Group_782" data-name="Group 782">
            <path id="Path_486" data-name="Path 486" d="M10100.978,9012.648s.1,3.792,2.818,4.58h-4.138l-.572-3.811Z" fill="#ef4e37"/>
          </g>
        </g>
      </g>
      <g id="Group_786" data-name="Group 786">
        <g id="Group_785" data-name="Group 785">
          <path id="Path_487" data-name="Path 487" d="M10373.355,9017.229h-258.969s-1.307-9.147,5.01-15.464,2.613-10.89.436-11.979l214.427-9.745,9.257,10.834Z" fill="#242638"/>
        </g>
      </g>
      <g id="Group_788" data-name="Group 788">
        <g id="Group_787" data-name="Group 787">
          <path id="Path_488" data-name="Path 488" d="M10463.387,8953.67a21.914,21.914,0,0,1-.444,4.417l-4.587,22.634-1.686,8.312v.013l-3.777,18.662a10.672,10.672,0,0,1-9.462,8.52l-9.8.915h-.013l-8.546.811-42.786,4-3.045.288a6.508,6.508,0,0,1-3.229-4.13,7.525,7.525,0,0,1,.824-5.019,7.442,7.442,0,0,0-2.614-9.906l-6.522,1.932-22.555-17.626,6.1-16v-.013l1.137-2.993,4.417-11.591-12.558,4.43h-.013l-6.456,2.273h-.014l-15.982,5.633-19.5-15.238-3.28-6.743-3.908-8.062-11.316-23.3s1.646-5.881,10.141-2.928c8.494,2.928,10.938-7.841,10.938-7.841l7.227,11.866,3.829,6.3,9.7,15.942,23.353-7.383,8.861-2.8h.013l10.859-3.437a19.371,19.371,0,0,1,6.4-.811l27.013,1.163.4.039,25.574,2.563.157.013,16.884,3.136a22.25,22.25,0,0,1,14.388,9.409c.314.444.6.9.876,1.372a22.621,22.621,0,0,1,2.993,11.174Z" fill="#f3967a"/>
        </g>
      </g>
      <g id="Group_790" data-name="Group 790">
        <g id="Group_789" data-name="Group 789">
          <path id="Path_489" data-name="Path 489" d="M10426.587,8905.291l.535-5.083-3.345-9.3s-11.03-1.882-11.278-1.882h-11.252l.235,11.187-.235,6.547a11.662,11.662,0,0,0,6.678,10.938l-1.058,8.756,17.314,1.725,1.5-14.3Z" fill="#f9f6f2"/>
        </g>
      </g>
      <g id="Group_792" data-name="Group 792">
        <g id="Group_791" data-name="Group 791">
          <path id="Path_490" data-name="Path 490" d="M10428.089,8928.566a13.382,13.382,0,0,1-25.574-2.562Z" fill="#f9f6f2"/>
        </g>
      </g>
      <g id="Group_794" data-name="Group 794">
        <g id="Group_793" data-name="Group 793">
          <path id="Path_491" data-name="Path 491" d="M10415.675,8937.673a14.1,14.1,0,0,1-13.864-11.539.716.716,0,1,1,1.409-.26,12.664,12.664,0,0,0,24.2,2.424.717.717,0,1,1,1.33.535A14.028,14.028,0,0,1,10415.675,8937.673Z" fill="#fff"/>
        </g>
      </g>
      <g id="Group_796" data-name="Group 796">
        <g id="Group_795" data-name="Group 795">
          <path id="Path_492" data-name="Path 492" d="M10430.6,8909.6a4.321,4.321,0,0,1-4.324,4.325,3,3,0,0,1-.589-.052l.9-8.586A4.315,4.315,0,0,1,10430.6,8909.6Z" fill="#f9f6f2"/>
        </g>
      </g>
      <g id="Group_798" data-name="Group 798">
        <g id="Group_797" data-name="Group 797">
          <path id="Path_493" data-name="Path 493" d="M10430.478,8910.617s10.288,1.032,11.1-10.648-9.229-10.618-9.229-10.618,3.268-8.713-2.924-13.894a11.555,11.555,0,0,0-9.887-2.428c-3.288.74-7.179,3.1-8.507,9.87,0,0-7.084-7.766-14.119,1.619-5.178,6.907,4.331,16.513,4.331,16.513a26.242,26.242,0,0,0,2.274-9.066s1.552,8.821,11.025,8.249a5.4,5.4,0,0,0,3.187-2.858c1.062-2.287,5.145-2.777,6.207,1.879,0,0,1.634,5.063-1.062,7.269l2.669-.762a3.762,3.762,0,0,1,1.7-.078,3.91,3.91,0,0,1,1.515.6,4.667,4.667,0,0,1,.815.761,3.914,3.914,0,0,1,.714,1.045,2.979,2.979,0,0,1,.211,1.172c0,.416-.021.832-.021,1.249v.132Z" fill="#242638"/>
        </g>
      </g>
      <g id="Group_800" data-name="Group 800">
        <g id="Group_799" data-name="Group 799">
          <circle id="Ellipse_8" data-name="Ellipse 8" cx="6.667" cy="6.667" r="6.667" transform="translate(10411.271 8899.655)" fill="#242638"/>
        </g>
      </g>
      <g id="Group_802" data-name="Group 802">
        <g id="Group_801" data-name="Group 801">
          <path id="Path_494" data-name="Path 494" d="M10409.415,8904.9a6.633,6.633,0,0,1-2.509,5.2,6.041,6.041,0,0,1-1.464.89,6.424,6.424,0,0,1-2.692.575,6.607,6.607,0,0,1-3.084-.759,6.738,6.738,0,0,1-1.895-1.477,6.891,6.891,0,0,1-.837-1.176,4.974,4.974,0,0,1-.392-.836,6.419,6.419,0,0,1-.458-2.418,6.658,6.658,0,0,1,1.268-3.921,6.621,6.621,0,0,1,5.4-2.758,6.481,6.481,0,0,1,2.431.458,5.909,5.909,0,0,1,.823.405,6.07,6.07,0,0,1,1.176.823,6.619,6.619,0,0,1,2.235,4.992Z" fill="#242638"/>
        </g>
      </g>
      <g id="Group_804" data-name="Group 804">
        <g id="Group_803" data-name="Group 803">
          <path id="Path_495" data-name="Path 495" d="M10356.8,8957.614a.717.717,0,0,1-.653-1.013l9.8-21.671a.718.718,0,0,1,1.308.592l-9.8,21.671A.718.718,0,0,1,10356.8,8957.614Z" fill="#242638"/>
        </g>
      </g>
      <g id="Group_833" data-name="Group 833">
        <g id="Group_806" data-name="Group 806">
          <g id="Group_805" data-name="Group 805">
            <path id="Path_496" data-name="Path 496" d="M10391.022,8943.246l-10.161,3.037,2.449-10.318Z" fill="#ffeae8"/>
          </g>
        </g>
        <g id="Group_808" data-name="Group 808">
          <g id="Group_807" data-name="Group 807">
            <path id="Path_497" data-name="Path 497" d="M10390.987,8990.318l-10.572-.832,6.007-8.739Z" fill="#ffeae8"/>
          </g>
        </g>
        <g id="Group_810" data-name="Group 810">
          <g id="Group_809" data-name="Group 809">
            <path id="Path_498" data-name="Path 498" d="M10360.565,8971.012l-7.788,7.213-1.529-6.729v-.014l1.137-2.992Z" fill="#ffeae8"/>
          </g>
        </g>
        <g id="Group_812" data-name="Group 812">
          <g id="Group_811" data-name="Group 811">
            <path id="Path_499" data-name="Path 499" d="M10344.23,8961.328l-6.455,2.273,1.176-6.7Z" fill="#ffeae8"/>
          </g>
        </g>
        <g id="Group_814" data-name="Group 814">
          <g id="Group_813" data-name="Group 813">
            <path id="Path_500" data-name="Path 500" d="M10357.821,8929.049l-5.24,9.083-3.62-6.286Z" fill="#ffeae8"/>
          </g>
        </g>
        <g id="Group_816" data-name="Group 816">
          <g id="Group_815" data-name="Group 815">
            <path id="Path_501" data-name="Path 501" d="M10303.654,8939.19l-4.652,8.063-3.908-8.062Z" fill="#ffeae8"/>
          </g>
        </g>
        <g id="Group_818" data-name="Group 818">
          <g id="Group_817" data-name="Group 817">
            <path id="Path_502" data-name="Path 502" d="M10315.912,8923.286l-6.992,2.875,1.412-10.52,1.751,1.346Z" fill="#ffeae8"/>
          </g>
        </g>
        <g id="Group_820" data-name="Group 820">
          <g id="Group_819" data-name="Group 819">
            <path id="Path_503" data-name="Path 503" d="M10405.668,8967.778l8.479-6.368,1.275,10.527Z" fill="#ffeae8"/>
          </g>
        </g>
        <g id="Group_822" data-name="Group 822">
          <g id="Group_821" data-name="Group 821">
            <path id="Path_504" data-name="Path 504" d="M10427.867,8950.105l1.833-10.445,8.13,6.81Z" fill="#ffeae8"/>
          </g>
        </g>
        <g id="Group_824" data-name="Group 824">
          <g id="Group_823" data-name="Group 823">
            <path id="Path_505" data-name="Path 505" d="M10462.067,8946.129l-3.659,1.333,1.109-6.338c.314.444.6.9.876,1.372A22.327,22.327,0,0,1,10462.067,8946.129Z" fill="#ffeae8"/>
          </g>
        </g>
        <g id="Group_826" data-name="Group 826">
          <g id="Group_825" data-name="Group 825">
            <path id="Path_506" data-name="Path 506" d="M10434.6,9016.789l-.968.354h-.013l-8.547.81,1.4-7.972Z" fill="#ffeae8"/>
          </g>
        </g>
        <g id="Group_828" data-name="Group 828">
          <g id="Group_827" data-name="Group 827">
            <path id="Path_507" data-name="Path 507" d="M10404.135,8995.227l-1.921,8.1-6.612-6.234C10398.307,8996.442,10401.169,8995.815,10404.135,8995.227Z" fill="#ffeae8"/>
          </g>
        </g>
        <g id="Group_830" data-name="Group 830">
          <g id="Group_829" data-name="Group 829">
            <path id="Path_508" data-name="Path 508" d="M10383.749,9015.783l-1.464,6.168-3.045.288a6.508,6.508,0,0,1-3.229-4.13Z" fill="#ffeae8"/>
          </g>
        </g>
        <g id="Group_832" data-name="Group 832">
          <g id="Group_831" data-name="Group 831">
            <path id="Path_509" data-name="Path 509" d="M10458.355,8980.721l-1.686,8.312-3.8-8.991Z" fill="#ffeae8"/>
          </g>
        </g>
      </g>
      <g id="Group_835" data-name="Group 835">
        <g id="Group_834" data-name="Group 834">
          <path id="Path_510" data-name="Path 510" d="M10407.925,8917.693s4.689,1.741,10.9-2.179c0,0-1.694,5.315-11.36,6.008Z" fill="#f9f6f2"/>
        </g>
      </g>
      <g id="Group_848" data-name="Group 848">
        <g id="Group_838" data-name="Group 838">
          <g id="Group_837" data-name="Group 837">
            <g id="Group_836" data-name="Group 836">
              <path id="Path_511" data-name="Path 511" d="M10114.36,9013.234h185.007v.784h-185.059Z" fill="#46495b"/>
            </g>
          </g>
        </g>
        <g id="Group_841" data-name="Group 841">
          <g id="Group_840" data-name="Group 840">
            <g id="Group_839" data-name="Group 839">
              <path id="Path_512" data-name="Path 512" d="M10116.373,9005.969h182.994v.784h-183.373Z" fill="#46495b"/>
            </g>
          </g>
        </g>
        <g id="Group_844" data-name="Group 844">
          <g id="Group_843" data-name="Group 843">
            <g id="Group_842" data-name="Group 842">
              <path id="Path_513" data-name="Path 513" d="M10120.62,9000.4l178.747-4.534.014.784-179.453,4.548Z" fill="#46495b"/>
            </g>
          </g>
        </g>
        <g id="Group_847" data-name="Group 847">
          <g id="Group_846" data-name="Group 846">
            <g id="Group_845" data-name="Group 845">
              <path id="Path_514" data-name="Path 514" d="M10122.737,8993.515l176.525-7.958.039.783-176.434,7.959Z" fill="#46495b"/>
            </g>
          </g>
        </g>
      </g>
      <g id="Group_850" data-name="Group 850">
        <g id="Group_849" data-name="Group 849">
          <path id="Path_515" data-name="Path 515" d="M10176.239,9000.245s3.543,5.155,13.535,4.508C10189.774,9004.753,10185.146,8995.386,10176.239,9000.245Z" fill="#464646"/>
        </g>
      </g>
      <g id="Group_872" data-name="Group 872">
        <g id="Group_852" data-name="Group 852">
          <g id="Group_851" data-name="Group 851">
            <path id="Path_516" data-name="Path 516" d="M10197.056,8986.928v30.307h-41.622a7.953,7.953,0,0,1,4.731-7.516c.339-.157.666-.3.967-.4a9.218,9.218,0,0,1,1.816-.5,66.067,66.067,0,0,0,11.277-2.483h.014c.262-.092.51-.17.745-.262,1.006-.339,1.895-.68,2.679-1.006.261-.105.51-.209.731-.314.929-.418,1.66-.8,2.208-1.11.263-.156.484-.287.667-.4a6.259,6.259,0,0,0,.706-.472l8.781-11.486Z" fill="#ef4e37"/>
          </g>
        </g>
        <g id="Group_854" data-name="Group 854">
          <g id="Group_853" data-name="Group 853">
            <path id="Path_517" data-name="Path 517" d="M10181.976,9002.767s4.041-.607,6.246,4.45a8.59,8.59,0,0,0,6.7,5.4s-5.648-10.9-10.868-12.565Z" fill="#f9f6f2"/>
          </g>
        </g>
        <g id="Group_867" data-name="Group 867">
          <g id="Group_857" data-name="Group 857">
            <g id="Group_856" data-name="Group 856">
              <g id="Group_855" data-name="Group 855">
                <path id="Path_518" data-name="Path 518" d="M10197.056,9015.156v.771h-31.781a.362.362,0,0,1-.287-.118.386.386,0,0,1-.105-.3,5.233,5.233,0,0,0-4.442-5.567.365.365,0,0,1-.274-.223c.339-.157.666-.3.967-.4a5.949,5.949,0,0,1,4.534,5.842Z" fill="#fff"/>
              </g>
            </g>
          </g>
          <g id="Group_860" data-name="Group 860">
            <g id="Group_859" data-name="Group 859">
              <g id="Group_858" data-name="Group 858">
                <path id="Path_519" data-name="Path 519" d="M10177.14,9010.882a.484.484,0,0,1-.183.04.411.411,0,0,1-.352-.209l-2.366-4.378c.262-.092.51-.17.745-.262l2.313,4.273A.4.4,0,0,1,10177.14,9010.882Z" fill="#fff"/>
              </g>
            </g>
          </g>
          <g id="Group_863" data-name="Group 863">
            <g id="Group_862" data-name="Group 862">
              <g id="Group_861" data-name="Group 861">
                <path id="Path_520" data-name="Path 520" d="M10180.59,9009.628a.324.324,0,0,1-.183.052.41.41,0,0,1-.353-.209l-2.392-4.4c.261-.105.51-.209.731-.314l2.353,4.353A.378.378,0,0,1,10180.59,9009.628Z" fill="#fff"/>
              </g>
            </g>
          </g>
          <g id="Group_866" data-name="Group 866">
            <g id="Group_865" data-name="Group 865">
              <g id="Group_864" data-name="Group 864">
                <path id="Path_521" data-name="Path 521" d="M10183.583,9008.321a.541.541,0,0,1-.2.039.38.38,0,0,1-.34-.2l-2.444-4.521c.263-.156.484-.287.667-.4l2.471,4.547A.4.4,0,0,1,10183.583,9008.321Z" fill="#fff"/>
              </g>
            </g>
          </g>
        </g>
        <g id="Group_869" data-name="Group 869">
          <g id="Group_868" data-name="Group 868">
            <path id="Path_522" data-name="Path 522" d="M10175.1,9006.844l-.309-.066c-.134-.029-3.3-.732-4.312-3a6.14,6.14,0,0,1-.56-3.214,2.587,2.587,0,0,1,1.386-2.183c1.514-.674,3.527.626,4.579,2.972,1.017,2.267-.561,5.1-.628,5.215Zm-2.944-7.778a1.208,1.208,0,0,0-.5.1,1.776,1.776,0,0,0-.884,1.5,5.276,5.276,0,0,0,.491,2.755c.671,1.5,2.621,2.2,3.392,2.425.343-.725,1.114-2.652.443-4.146C10174.4,9000.14,10173.153,8999.065,10172.157,8999.065Z" fill="#fff"/>
          </g>
        </g>
        <g id="Group_871" data-name="Group 871">
          <g id="Group_870" data-name="Group 870">
            <path id="Path_523" data-name="Path 523" d="M10174.5,9006.767h-8.372a.43.43,0,0,1,0-.859h8.372a.43.43,0,0,1,0,.859Z" fill="#fff"/>
          </g>
        </g>
      </g>
      <g id="Group_874" data-name="Group 874">
        <g id="Group_873" data-name="Group 873">
          <path id="Path_524" data-name="Path 524" d="M10375.856,9017.234H10303l-52.377-50.209-39.714,41.4-1.464,1.529-4.889,5.1c-8.062.549-10.676-2.182-15.681-10.454s-12.637-4.352-12.637-4.352l5.057-5.737,1.687-1.908,53.5-60.7a24.545,24.545,0,0,1,33.546-3.11l97.672,76.331Z" fill="#242638"/>
        </g>
      </g>
      <g id="Group_884" data-name="Group 884">
        <g id="Group_877" data-name="Group 877">
          <g id="Group_876" data-name="Group 876">
            <g id="Group_875" data-name="Group 875">
              <path id="Path_525" data-name="Path 525" d="M10316.748,9017.234h-1.137l-60.61-55.959a7.439,7.439,0,0,0-10.6.5l-46.745,52.115a.407.407,0,0,1-.562.026.392.392,0,0,1-.025-.549l46.758-52.116a8.134,8.134,0,0,1,5.737-2.731,8.277,8.277,0,0,1,5.973,2.183Z" fill="#46495b"/>
            </g>
          </g>
        </g>
        <g id="Group_880" data-name="Group 880">
          <g id="Group_879" data-name="Group 879">
            <g id="Group_878" data-name="Group 878">
              <path id="Path_526" data-name="Path 526" d="M10335.292,9017.234h-1.189l-71.443-63.97a16.687,16.687,0,0,0-23.17,1.45l-47.948,52.771a.4.4,0,0,1-.588-.536l47.948-52.771a17.48,17.48,0,0,1,24.267-1.5Z" fill="#46495b"/>
            </g>
          </g>
        </g>
        <g id="Group_883" data-name="Group 883">
          <g id="Group_882" data-name="Group 882">
            <g id="Group_881" data-name="Group 881">
              <path id="Path_527" data-name="Path 527" d="M10363.313,9008.752a.391.391,0,0,1-.241-.083l-94.781-73.985a23.1,23.1,0,0,0-30.715,2.966l-55.605,61.479a.392.392,0,1,1-.582-.526l55.607-61.48a23.89,23.89,0,0,1,31.768-3.062l94.79,73.992a.392.392,0,0,1-.24.7Z" fill="#46495b"/>
            </g>
          </g>
        </g>
      </g>
      <g id="Group_886" data-name="Group 886">
        <g id="Group_885" data-name="Group 885">
          <path id="Path_528" data-name="Path 528" d="M10351.249,9014.349a.713.713,0,0,1-.464-.17l-16.709-14.167h0a4.218,4.218,0,0,1-1.144-1.146,2.6,2.6,0,0,1-.378-.935,1.239,1.239,0,0,0-1.227-.888l-2.886-.065c-1.262-.027-2.069-.6-2.106-1.48a1.61,1.61,0,0,1,.427-1.108,4.838,4.838,0,0,1,1.112-.908c.182-.119.365-.238.533-.374a1.644,1.644,0,0,0,.352-.391,28.332,28.332,0,0,1-4.645-.27c-.44-.062-1.776-.25-2.147-1.381a2.356,2.356,0,0,1,.788-2.264c.293-.346.595-.7.573-.961-.021-.229-.389-.463-.762-.48a4.158,4.158,0,0,0-1.238.214c-.174.048-.348.095-.522.136a7.453,7.453,0,0,1-3.231.032.718.718,0,0,1-.569-.683,2.767,2.767,0,0,1,1.192-2.058l.2-.182c.352-.332.412-.6.369-.691s-.312-.263-.829-.214c-.175.016-.35.043-.526.07a4.522,4.522,0,0,1-1.535.054,6.387,6.387,0,0,1-2.979-1.936c-.242-.23-.476-.452-.7-.645l-44.562-37.781a21.522,21.522,0,0,0-29.376,2.264l-44.236,48.734a.716.716,0,1,1-1.061-.963l44.236-48.737a22.963,22.963,0,0,1,31.35-2.4l44.576,37.793c.245.207.5.448.762.7a5.49,5.49,0,0,0,2.243,1.563,3.5,3.5,0,0,0,1.066-.059c.205-.032.409-.063.614-.081a2.145,2.145,0,0,1,2.265,1.051,2.046,2.046,0,0,1-.689,2.324l-.215.2c-.145.134-.292.268-.415.4a6.021,6.021,0,0,0,1.73-.144c.155-.037.313-.08.471-.123a5.636,5.636,0,0,1,1.688-.265,2.143,2.143,0,0,1,2.117,1.79,2.781,2.781,0,0,1-.907,2.012c-.342.4-.58.7-.518.891.021.065.155.29.981.406a26.974,26.974,0,0,0,5.188.228.721.721,0,0,1,.7.45,2.267,2.267,0,0,1-.895,2.518,7.462,7.462,0,0,1-.646.457,3.648,3.648,0,0,0-.8.633.422.422,0,0,0-.095.146c.023-.031.275.077.706.087l2.887.065a2.659,2.659,0,0,1,2.6,2.045,1.194,1.194,0,0,0,.169.42,3.1,3.1,0,0,0,.791.785l16.791,14.226a.717.717,0,0,1-.463,1.264Z" fill="#151621"/>
        </g>
      </g>
      <g id="Group_895" data-name="Group 895">
        <g id="Group_888" data-name="Group 888">
          <g id="Group_887" data-name="Group 887">
            <path id="Path_529" data-name="Path 529" d="M10377.794,9021.182l-18.3-2.51v-11.127l8.188-2.437.016.014,6.523-1.937a7.436,7.436,0,0,1,2.61,9.909,7.535,7.535,0,0,0-.817,5.02A6.042,6.042,0,0,0,10377.794,9021.182Z" fill="#f9f6f2"/>
          </g>
        </g>
        <g id="Group_890" data-name="Group 890">
          <g id="Group_889" data-name="Group 889">
            <path id="Path_530" data-name="Path 530" d="M10359.493,9007.545l-3.421,1.012a16.36,16.36,0,0,0-7.308,4.516l-.007.008a16.2,16.2,0,0,0-3.937,7.367,32.858,32.858,0,0,0-.865,7.286l-.058,8.989a.819.819,0,1,0,1.634,0q1.333-7.242,2.668-14.483l1.742,16.117a1.416,1.416,0,1,0,2.832,0q-.028-.954-.056-1.906a1.2,1.2,0,0,0,2.4,0l.381-2.56a.94.94,0,1,0,1.743,0q.163-6.643.327-13.285a4.236,4.236,0,0,1,1.928-1.933Z" fill="#f9f6f2"/>
          </g>
        </g>
        <g id="Group_892" data-name="Group 892">
          <g id="Group_891" data-name="Group 891">
            <path id="Path_531" data-name="Path 531" d="M10352.719,9036.881a.43.43,0,0,1-.43-.412l-.6-14.212a.431.431,0,0,1,.41-.448.443.443,0,0,1,.448.411l.6,14.212a.432.432,0,0,1-.412.449Z" fill="#242638"/>
          </g>
        </g>
        <g id="Group_894" data-name="Group 894">
          <g id="Group_893" data-name="Group 893">
            <path id="Path_532" data-name="Path 532" d="M10355.5,9034.321a.429.429,0,0,1-.43-.4l-.709-11.652a.431.431,0,0,1,.4-.455.4.4,0,0,1,.456.4l.709,11.652a.432.432,0,0,1-.4.456Z" fill="#242638"/>
          </g>
        </g>
      </g>
      <g id="Group_898" data-name="Group 898">
        <g id="Group_897" data-name="Group 897">
          <g id="Group_896" data-name="Group 896">
            <path id="Path_533" data-name="Path 533" d="M10134.172,8989.137a7.261,7.261,0,0,1,2.039,4.535c.039,1.986-1.046,3.815-3.215,5.462-6.5,4.914-7.789,6.952-7.658,12.154l.5,5.88-.718.066-.575.052v-.052l-.51-5.882c-.145-5.724,1.307-8.075,8.168-13.264,1.815-1.373,2.73-2.849,2.705-4.378-.039-1.947-1.542-3.62-2.51-4.5Z" fill="#151621"/>
          </g>
        </g>
      </g>
      <g id="Group_901" data-name="Group 901">
        <g id="Group_900" data-name="Group 900">
          <g id="Group_899" data-name="Group 899">
            <path id="Path_534" data-name="Path 534" d="M10210.909,9008.426l-1.464,1.529a17.489,17.489,0,0,1-2.156.13,13.273,13.273,0,0,1-7.462-2.052,9.832,9.832,0,0,1-4.064-6.338c-.053-.2-.079-.432-.131-.68a8.689,8.689,0,0,0-2.993-5.829c-3.658-3.084-9.135-1.5-11.343-.679l1.687-1.908c2.914-.744,7.253-1.149,10.507,1.595a9.957,9.957,0,0,1,3.437,6.6q.059.353.117.627a8.506,8.506,0,0,0,3.5,5.515C10203.211,9008.687,10206.7,9009.2,10210.909,9008.426Z" fill="#151621"/>
          </g>
        </g>
      </g>
      <g id="Group_903" data-name="Group 903">
        <g id="Group_902" data-name="Group 902">
          <path id="Path_535" data-name="Path 535" d="M10426.673,8912.058a.429.429,0,1,1,0-.858,1.588,1.588,0,0,0,0-3.177.43.43,0,0,1,0-.86,2.448,2.448,0,1,1,0,4.9Z" fill="#ff9c91"/>
        </g>
      </g>
      <g id="Group_905" data-name="Group 905">
        <g id="Group_904" data-name="Group 904">
          <path id="Path_536" data-name="Path 536" d="M10411.514,8884.177a14.907,14.907,0,0,0-6.275-5.418,34.494,34.494,0,0,0-8.169-2.341,14.471,14.471,0,0,1,8.781,1.046,11.435,11.435,0,0,1,3.647,2.725A8.25,8.25,0,0,1,10411.514,8884.177Z" fill="#242638"/>
        </g>
      </g>
      <g id="Group_907" data-name="Group 907">
        <g id="Group_906" data-name="Group 906">
          <path id="Path_537" data-name="Path 537" d="M10410.783,8884.309a12.006,12.006,0,0,1-.552-5.437,7.321,7.321,0,0,1,2.523-4.88,29.684,29.684,0,0,0-1.1,5.075A39.016,39.016,0,0,1,10410.783,8884.309Z" fill="#242638"/>
        </g>
      </g>
      <g id="Group_909" data-name="Group 909">
        <g id="Group_908" data-name="Group 908">
          <rect id="Rectangle_44" data-name="Rectangle 44" width="1.435" height="15.256" transform="translate(10402.684 8905.607) rotate(-84.627)" fill="#242638"/>
        </g>
      </g>
      <g id="Group_911" data-name="Group 911">
        <g id="Group_910" data-name="Group 910">
          <path id="Path_538" data-name="Path 538" d="M10408.67,8901.815l-9,8.99a6.738,6.738,0,0,1-1.895-1.477l9.408-9.422A6.827,6.827,0,0,1,10408.67,8901.815Z" fill="#696969"/>
        </g>
      </g>
      <g id="Group_913" data-name="Group 913">
        <g id="Group_912" data-name="Group 912">
          <path id="Path_539" data-name="Path 539" d="M10406,8899.084l-9.069,9.069a4.974,4.974,0,0,1-.392-.836l8.638-8.639A5.909,5.909,0,0,1,10406,8899.084Z" fill="#696969"/>
        </g>
      </g>
      <g id="Group_915" data-name="Group 915">
        <g id="Group_914" data-name="Group 914">
          <path id="Path_540" data-name="Path 540" d="M10293.662,8897.2l-2.405-16.049a2.457,2.457,0,0,0-1.75-2h0l-.941,16.054Z" fill="#f9f6f2"/>
        </g>
      </g>
      <g id="Group_917" data-name="Group 917">
        <g id="Group_916" data-name="Group 916">
          <path id="Path_541" data-name="Path 541" d="M10375.252,9003.553a.717.717,0,0,1-.238-1.394c.082-.028,8.231-2.872,20.422-5.761,2.722-.657,5.6-1.288,8.561-1.874a142.931,142.931,0,0,1,25.068-2.948l6.646-34.813a.717.717,0,0,1,1.409.27l-6.757,35.389a.717.717,0,0,1-.7.582,139.844,139.844,0,0,0-25.389,2.927c-2.938.583-5.8,1.21-8.5,1.862-12.116,2.872-20.2,5.692-20.278,5.72A.713.713,0,0,1,10375.252,9003.553Z" fill="#242638"/>
        </g>
      </g>
    </g>
    <g id="Group_920" data-name="Group 920">
      <rect id="Rectangle_45" data-name="Rectangle 45" width="71.399" height="49.542" rx="2.727" transform="matrix(1, -0.008, 0.008, 1, 10296.313, 8827.8)" fill="#242638"/>
      <path id="Path_542" data-name="Path 542" d="M10365.708,8851.808l21.292,21.7-26.266-4.9Z" fill="#242638"/>
      <g id="Group_919" data-name="Group 919">
        <path id="Path_543" data-name="Path 543" d="M10346.5,8848.75l-6.408-.115s-8.074-6.028-8.321-8.161,1.076-6.64-.176-7.207a4.2,4.2,0,0,0-5.581,1.81c-1.216,2.048-.2,9.524-.956,10.024-.471.313-4.155.351-6.848.335a4.751,4.751,0,0,0-4.227,2.527l0,0a2.534,2.534,0,0,0,.613,3.131l1.43,1.2-1.125,1.494a2.532,2.532,0,0,0,.487,3.536l1.128.86-.771.881a2.53,2.53,0,0,0,.45,3.744l1,.7-.151.277a2.533,2.533,0,0,0,.828,3.32l1.008.667,17.065.3a11.739,11.739,0,0,0,4.666-.878l6.02-.885a1.323,1.323,0,0,0,1.128-1.3l.039-14.937A1.32,1.32,0,0,0,10346.5,8848.75Z" fill="#ef4e37"/>
      </g>
    </g>
  </g>
  <g id="Group_1187" data-name="Group 1187" transform="translate(-9915.125 -8709.229)">
    <g id="Group_1155" data-name="Group 1155">
      <g id="Group_1154" data-name="Group 1154">
        <rect id="Rectangle_91" data-name="Rectangle 91" width="166.265" height="216.629" transform="translate(9969.486 8771.732) rotate(-22.082)" fill="#d34031"/>
      </g>
    </g>
    <g id="Group_1186" data-name="Group 1186">
      <g id="Group_1157" data-name="Group 1157">
        <g id="Group_1156" data-name="Group 1156">
          <rect id="Rectangle_92" data-name="Rectangle 92" width="166.265" height="216.629" transform="translate(9943.639 8782.219) rotate(-22.082)" fill="#f3967a"/>
        </g>
      </g>
      <g id="Group_1164" data-name="Group 1164">
        <g id="Group_1159" data-name="Group 1159">
          <g id="Group_1158" data-name="Group 1158">
            <ellipse id="Ellipse_21" data-name="Ellipse 21" cx="42.533" cy="17.077" rx="42.533" ry="17.077" transform="translate(10000.856 8816.29) rotate(-22.082)" fill="#242638"/>
          </g>
        </g>
        <g id="Group_1161" data-name="Group 1161">
          <g id="Group_1160" data-name="Group 1160">
            <path id="Path_843" data-name="Path 843" d="M10081.788,8804.1a1.976,1.976,0,0,1-2.442-.923c-.581-.51-3.226-1.755-8.99-1.733-7.774.026-17.407,2.213-27.125,6.155a95.632,95.632,0,0,0-11.257,5.424,1.956,1.956,0,0,1-2.669-.84,2.031,2.031,0,0,1,.7-2.753,99.049,99.049,0,0,1,11.688-5.633c10.141-4.114,20.26-6.395,28.491-6.424,6.651-.024,11.608,1.585,12.629,4.1A1.993,1.993,0,0,1,10081.788,8804.1Z" fill="#d4dee8"/>
          </g>
        </g>
        <g id="Group_1163" data-name="Group 1163">
          <g id="Group_1162" data-name="Group 1162">
            <path id="Path_844" data-name="Path 844" d="M10013.133,8831.952a2,2,0,0,1-2.562-1.175c-1.021-2.516,1.415-7.122,6.2-11.739,1.057-1.021,2.227-2.047,3.476-3.054a1.922,1.922,0,0,1,2.744.413,2.07,2.07,0,0,1-.282,2.848c-1.163.937-2.249,1.891-3.227,2.834-4.151,4-5.182,6.738-5.243,7.508A1.977,1.977,0,0,1,10013.133,8831.952Zm1.105-2.289Zm-.085-.339v0Z" fill="#d4dee8"/>
          </g>
        </g>
      </g>
      <g id="Group_1166" data-name="Group 1166">
        <g id="Group_1165" data-name="Group 1165">
          <path id="Path_845" data-name="Path 845" d="M10133.848,8818.4s-26.247-15.327-48.316,20.781-48.229,78.6-71.393,70.877-13.294-30.026-13.294-30.026,6.328,29.311,32.856,5.562S10088.321,8788.461,10133.848,8818.4Z" fill="#fbdbd0"/>
        </g>
      </g>
      <g id="Group_1170" data-name="Group 1170">
        <g id="Group_1169" data-name="Group 1169" clip-path="url(#clip-path)">
          <g id="Group_1168" data-name="Group 1168">
            <g id="Group_1167" data-name="Group 1167">
              <path id="Path_846" data-name="Path 846" d="M10153.613,8836.948s-29.949-24.452-61.163,16.547-46.233,89.007-94.517,87.933-55.721,91.675,28.067,88.382,183.969-92.343,184.851-95.652,3.76-42.85.881-49.946S10153.613,8836.948,10153.613,8836.948Z" fill="#242638"/>
            </g>
          </g>
        </g>
      </g>
      <g id="Group_1171" data-name="Group 1171">
        <path id="Path_847" data-name="Path 847" d="M10111.053,8907.844c5.527,16.069-.148,32.51-12.676,36.725s-27.162-5.4-32.687-21.467.773-30.69,13.3-34.9S10105.527,8891.776,10111.053,8907.844Z" fill="#ef4e37"/>
      </g>
      <g id="Group_1172" data-name="Group 1172">
        <path id="Path_848" data-name="Path 848" d="M10070.893,8917.9a2.284,2.284,0,0,1-.61.152,2.569,2.569,0,0,1-2.751-2.256c-1.394-10.011,2.333-18.741,9.724-22.783a2.443,2.443,0,0,1,3.307,1.1,2.52,2.52,0,0,1-.917,3.407c-5.606,3.066-8.408,9.869-7.312,17.754A2.434,2.434,0,0,1,10070.893,8917.9Z" fill="#f3967a"/>
      </g>
      <g id="Group_1174" data-name="Group 1174">
        <g id="Group_1173" data-name="Group 1173">
          <path id="Path_849" data-name="Path 849" d="M10078.99,8888.2a21.464,21.464,0,0,0-4.935,2.4c11.386-1.538,23.114,6.205,28.057,20.576,4.756,13.827,1.212,27.922-7.85,34.272a18.958,18.958,0,0,0,4.114-.88c12.527-4.215,18.2-20.655,12.676-36.725S10091.517,8883.984,10078.99,8888.2Z" fill="#d34031"/>
        </g>
      </g>
      <g id="Group_1183" data-name="Group 1183">
        <g id="Group_1176" data-name="Group 1176">
          <g id="Group_1175" data-name="Group 1175">
            <path id="Path_850" data-name="Path 850" d="M10145.067,8928.093c-9.452,11.538-24.778,13.972-34.23,5.435s-9.454-24.812,0-36.351,23.709-12.665,33.161-4.128S10154.52,8916.555,10145.067,8928.093Z" fill="#d34031"/>
          </g>
        </g>
        <g id="Group_1178" data-name="Group 1178">
          <g id="Group_1177" data-name="Group 1177">
            <path id="Path_851" data-name="Path 851" d="M10144.2,8927.366c-8.988,10.972-23.562,13.285-32.551,5.167s-8.989-23.593,0-34.565,22.545-12.044,31.533-3.926S10153.189,8916.394,10144.2,8927.366Z" fill="#f3967a"/>
          </g>
        </g>
        <g id="Group_1180" data-name="Group 1180">
          <g id="Group_1179" data-name="Group 1179">
            <path id="Path_852" data-name="Path 852" d="M10117.028,8924.812l-.119-.627c-1.33-7.048-.321-12.732,3-16.9,5.709-7.158,16.1-7.019,16.539-7.008l.632.013,1.173,1.06.107.654c.074.455,1.761,11.22-4.126,18.218-3.426,4.071-8.628,5.97-15.464,5.643l-.608-.029Z" fill="#d34031"/>
          </g>
        </g>
        <g id="Group_1182" data-name="Group 1182">
          <g id="Group_1181" data-name="Group 1181">
            <path id="Path_853" data-name="Path 853" d="M10136.681,8902.236l-.2-.179s-22.118-.477-17.9,21.854l.2.178C10140.438,8925.127,10136.681,8902.236,10136.681,8902.236Z" fill="#242638"/>
          </g>
        </g>
      </g>
      <g id="Group_1185" data-name="Group 1185">
        <g id="Group_1184" data-name="Group 1184">
          <path id="Path_854" data-name="Path 854" d="M9993.856,8762.006s9.45-3.012,12.5,4.517l14.156,34.9,14.229-15,20.95.725-14.157-34.9c-3.054-7.528,5.824-11.952,5.824-11.952Z" fill="#fbdbd0"/>
        </g>
      </g>
    </g>
    <rect id="Rectangle_94" data-name="Rectangle 94" width="20.01" height="60.481" rx="10.005" transform="translate(10111.335 8744.453) rotate(-22.082)" fill="#fbdbd0"/>
    <rect id="Rectangle_95" data-name="Rectangle 95" width="20.01" height="40.535" rx="10.005" transform="translate(10143.263 8823.154) rotate(-22.082)" fill="#fbdbd0"/>
  </g>
</svg>
